<svg xmlns="http://www.w3.org/2000/svg" width="86.367" height="86.367" viewBox="0 0 86.367 86.367"><g transform="matrix(-0.966, 0.259, -0.259, -0.966, 823.22, 316.322)"><circle cx="35.259" cy="35.259" r="35.259" transform="translate(647.505 430.461)" fill="#009adc"/><path d="M682.057,435.127a1.789,1.789,0,0,0,2.212,1.2l9.518-2.2a1.68,1.68,0,1,1,.751,3.248l-4.089.946c-.047.015-.094.029-.143.04l-5.219,1.207-9.517,2.2a1.793,1.793,0,0,0-1.462,2.049,1.767,1.767,0,0,0,2.031,1.232l17.55-4.061a1.68,1.68,0,1,1,.753,3.248l-2.788.646a1.792,1.792,0,0,0-1.461,2.05,1.716,1.716,0,0,0,1.675,1.252l6.936-1.605a2.031,2.031,0,0,1,.539-.053l1.069-.248a1.68,1.68,0,1,1,.752,3.249l-16.851,3.9a1.716,1.716,0,0,0-.953,1.86,1.762,1.762,0,0,0,2.029,1.232l.6-.139c.063-.014.123-.024.184-.033l8.916-2.063a1.68,1.68,0,1,1,.753,3.248l-12.066,2.792a1.764,1.764,0,0,0-1.282,2,1.79,1.79,0,0,0,2.213,1.2l8.006-1.853a2.225,2.225,0,0,1,.381-.053l5.1-1.18a1.68,1.68,0,1,1,.752,3.249l-9.518,2.2a1.793,1.793,0,0,0-1.46,2.051,1.766,1.766,0,0,0,2.03,1.232l5.818-1.348c.063-.014.123-.025.184-.033l3.7-.854,5.219-1.208a1.68,1.68,0,1,1,.752,3.248l-17.284,4a1.764,1.764,0,0,0-1.282,2,1.711,1.711,0,0,0,1.675,1.253l4.554-1.054a1.68,1.68,0,1,1,.751,3.248l-.722.167a2.053,2.053,0,0,1-.506.188l-8.8,2.036a1.718,1.718,0,0,0-.954,1.86,1.766,1.766,0,0,0,2.03,1.232l22.769-5.27a1.681,1.681,0,1,1,.752,3.25l-7.671,1.774a1.838,1.838,0,0,1-.18.05l-.335.078a1.653,1.653,0,0,0,.637,3.243l4.676-1.083a1.68,1.68,0,1,1,.752,3.25l-1.311.3a2.166,2.166,0,0,1-.283.088l-8.206,1.9a1.751,1.751,0,0,0-1.178,1.961,1.789,1.789,0,0,0,2.212,1.2l7.813-1.807a35.927,35.927,0,0,0-14.248-61.571l-7.813,1.808A1.8,1.8,0,0,0,682.057,435.127Z" fill="#0076b4"/><path d="M679.761,498l2.674-.619a1.717,1.717,0,0,0,1.4-1.965,1.678,1.678,0,0,0-1.842-1.193l-9.489,2.2a1.611,1.611,0,1,1-.722-3.115l1.256-.291a2.064,2.064,0,0,1,.273-.084l12.879-2.981a1.68,1.68,0,0,0,1.129-1.88,1.7,1.7,0,0,0-1.947-1.183l-16.836,3.9a1.611,1.611,0,1,1-.721-3.116l2.674-.618a1.718,1.718,0,0,0,1.4-1.965,1.648,1.648,0,0,0-1.607-1.2l-9.373,2.17a1.611,1.611,0,1,1-.723-3.115l.693-.16a2.005,2.005,0,0,1,.486-.182l13.441-3.11a1.644,1.644,0,0,0,.916-1.784,1.7,1.7,0,0,0-1.947-1.183l-.576.134c-.059.014-.117.023-.176.032l-8.552,1.978a1.611,1.611,0,1,1-.722-3.115l11.574-2.678a1.7,1.7,0,0,0,1.23-1.918,1.719,1.719,0,0,0-2.123-1.15l-7.681,1.777a2.094,2.094,0,0,1-.364.051l-4.89,1.131a1.612,1.612,0,1,1-.722-3.116l9.129-2.112a1.716,1.716,0,0,0,1.4-1.966,1.692,1.692,0,0,0-1.945-1.183l-5.582,1.293a1.74,1.74,0,0,1-.178.031l-3.545.82-5.006,1.159a1.611,1.611,0,1,1-.721-3.116l16.579-3.837a1.693,1.693,0,0,0,1.229-1.917,1.645,1.645,0,0,0-1.606-1.2l-1.646.381a1.96,1.96,0,0,1-.518.051l-1.025.238a1.611,1.611,0,1,1-.722-3.116l11.157-2.581a1.644,1.644,0,0,0,.916-1.785,1.694,1.694,0,0,0-1.947-1.183L654.9,454.667a1.611,1.611,0,1,1-.721-3.115l7.359-1.7c.057-.018.114-.035.172-.049l.321-.074a1.692,1.692,0,0,0,1.229-1.918,1.72,1.72,0,0,0-2.123-1.149l-2.673.618a1.611,1.611,0,1,1-.722-3.115l3.915-.906c.048-.014.095-.028.144-.039l7.68-1.777a1.611,1.611,0,1,0-.721-3.116l-2.674.618a1.72,1.72,0,0,1-2.123-1.149,1.454,1.454,0,0,1,.05-.812,34.459,34.459,0,0,0,14.74,63.691,1.437,1.437,0,0,1-.4-.706A1.728,1.728,0,0,1,679.761,498Z" fill="#44b8e7"/><path d="M694.359,467.239s2.356,2.523,4.377,8.922a23.856,23.856,0,0,1-5.556,22.727c3.2-1.516,11.111-14.142,11.111-14.142l7.406-2.021.338-6.564,2.02-7.07s-6.99-3.283-8.169-3.619-8.665.42-9.171.588-15.992-8.08-15.992-8.08a46.326,46.326,0,0,1,3.871-3.367c.674-.336,4.547.843,4.883,1.684s1.852,4.377,1.852,4.377a4.659,4.659,0,0,0,.674-3.367c-.337-2.02-1.01-5.219-1.01-5.219l-6.566-2.355s-7.744-11.448-7.575-12.8,2.862-5.555,4.04-5.892,3.872,2.525,5.219,3.2,5.219,10.438,5.556,8.754,8.753-7.575,8.753-7.575S678.7,422.292,658,440.473c0,0-9.6,9.933-10.438,20.875,0,0-.168,6.565,0,6.061s6.061-8.922,7.239-9.764.673,1.683,2.524,1.514,2.863.17,2.863,1.18a1.844,1.844,0,0,0,2.861,1.515c1.851-.84,14.982-2.188,14.982-2.188Z" fill="#6ca23d"/></g></svg>