<svg xmlns="http://www.w3.org/2000/svg" width="221.321" height="108.709" viewBox="0 0 221.321 108.709"><defs><style>.a,.b{fill:none;stroke-miterlimit:10;opacity:0.9;}.a{stroke:#f6cf84;stroke-linecap:round;stroke-linejoin:round;stroke-width:5.125px;}.b{stroke:#f3aa4f;stroke-width:3.986px;}.c{fill:#dc2e75;}.d{fill:#c21372;}.e{fill:#d91574;}</style></defs><g transform="translate(-1074.409 -357.909)"><path class="a" d="M1076.98,442.329c-1.678-6.059,45.359-24.359,105.057-40.873s109.452-24.992,111.129-18.932"/><path class="b" d="M1078.67,440.956c-1.315-4.759,45.052-21.739,103.563-37.926s107.014-25.451,108.33-20.691"/><path class="c" d="M1163.28,372.542a2.712,2.712,0,0,0,3.8-.232l10.455-10.455a2.544,2.544,0,1,1,3.571,3.569l-4.494,4.492c-.048.057-.1.112-.149.166l-5.733,5.733-10.456,10.456a2.711,2.711,0,0,0-.233,3.8,2.675,2.675,0,0,0,3.595-.043l19.28-19.282a2.544,2.544,0,1,1,3.571,3.57l-3.062,3.063a2.711,2.711,0,0,0-.234,3.8,2.6,2.6,0,0,0,3.155.264l7.62-7.621a3.122,3.122,0,0,1,.647-.5l1.176-1.177a2.543,2.543,0,1,1,3.57,3.57l-18.513,18.512a2.6,2.6,0,0,0,.266,3.153,2.674,2.674,0,0,0,3.595-.044l.66-.66c.067-.066.138-.13.208-.189l9.8-9.8a2.543,2.543,0,1,1,3.569,3.569l-13.254,13.256a2.677,2.677,0,0,0-.046,3.6,2.716,2.716,0,0,0,3.8-.236l8.8-8.8a3.308,3.308,0,0,1,.447-.372l5.6-5.6a2.544,2.544,0,1,1,3.571,3.57L1197.4,406.143a2.711,2.711,0,0,0-.234,3.8,2.674,2.674,0,0,0,3.594-.043l6.394-6.395c.069-.068.137-.131.209-.191l4.062-4.062,5.734-5.733a2.543,2.543,0,1,1,3.569,3.571l-18.989,18.988a2.672,2.672,0,0,0-.044,3.594,2.594,2.594,0,0,0,3.154.266l5-5a2.543,2.543,0,1,1,3.569,3.569l-.794.792a3.079,3.079,0,0,1-.5.649l-9.662,9.661a2.6,2.6,0,0,0,.266,3.155,2.673,2.673,0,0,0,3.594-.044l25.016-25.015a2.543,2.543,0,1,1,3.569,3.569l-8.428,8.43c-.061.07-.123.141-.191.207l-.367.369a2.5,2.5,0,0,0,3.417,3.654l5.137-5.138a2.543,2.543,0,1,1,3.57,3.569l-1.439,1.439a3.041,3.041,0,0,1-.293.342l-9.016,9.015a2.652,2.652,0,0,0,.061,3.463,2.711,2.711,0,0,0,3.8-.231l8.585-8.586a54.384,54.384,0,0,0-67.645-67.643l-8.584,8.584A2.692,2.692,0,0,0,1163.28,372.542Z"/><path class="d" d="M1211.05,456.487l3.063-3.063a2.715,2.715,0,0,0,.233-3.8,2.652,2.652,0,0,0-3.462-.059l-10.87,10.869a2.543,2.543,0,1,1-3.569-3.569l1.438-1.437a3.06,3.06,0,0,1,.293-.344l14.751-14.753a2.5,2.5,0,0,0-3.655-3.413l-19.281,19.28a2.543,2.543,0,1,1-3.57-3.57l3.063-3.063a2.71,2.71,0,0,0,.233-3.8,2.591,2.591,0,0,0-3.153-.265l-10.737,10.735a2.543,2.543,0,1,1-3.57-3.569l.794-.793a3.284,3.284,0,0,1,.5-.648l15.4-15.4a2.6,2.6,0,0,0-.266-3.154,2.672,2.672,0,0,0-3.594.045l-.66.66c-.068.066-.138.129-.208.189l-9.8,9.8a2.543,2.543,0,1,1-3.569-3.57l13.257-13.255a2.675,2.675,0,0,0,.043-3.6,2.714,2.714,0,0,0-3.8.233l-8.8,8.8a3.3,3.3,0,0,1-.446.371l-5.6,5.6a2.542,2.542,0,1,1-3.569-3.567l10.456-10.457a2.714,2.714,0,0,0,.233-3.8,2.675,2.675,0,0,0-3.6.046l-6.393,6.393c-.067.067-.137.131-.208.19l-4.063,4.063-5.733,5.733a2.544,2.544,0,1,1-3.57-3.571l18.99-18.989a2.675,2.675,0,0,0,.044-3.6,2.6,2.6,0,0,0-3.155-.265l-1.887,1.888a3.132,3.132,0,0,1-.647.5l-1.176,1.176a2.543,2.543,0,1,1-3.571-3.569l12.78-12.779a2.6,2.6,0,0,0-.266-3.154,2.676,2.676,0,0,0-3.595.045l-25.016,25.014a2.543,2.543,0,1,1-3.571-3.569l8.429-8.428c.062-.071.124-.141.189-.208l.369-.368a2.674,2.674,0,0,0,.044-3.594,2.714,2.714,0,0,0-3.8.234l-3.063,3.061a2.542,2.542,0,1,1-3.569-3.567l4.484-4.486c.052-.057.1-.117.158-.172l8.8-8.8a2.543,2.543,0,1,0-3.568-3.571l-3.063,3.063a2.71,2.71,0,0,1-3.8.234,2.268,2.268,0,0,1-.611-1.127,54.38,54.38,0,0,0,72.952,72.95,2.274,2.274,0,0,1-1.128-.61A2.71,2.71,0,0,1,1211.05,456.487Z"/><path class="e" d="M1233.97,440.7a54.022,54.022,0,0,0,5.764-12.9l-8.585,8.586a2.71,2.71,0,0,1-3.8.231,2.652,2.652,0,0,1-.061-3.463l9.016-9.015a2.94,2.94,0,0,0,.293-.342l1.439-1.439a2.543,2.543,0,1,0-3.57-3.569l-5.137,5.138a2.5,2.5,0,0,1-3.417-3.654l.367-.369c.068-.066.131-.137.191-.207l8.428-8.43a2.543,2.543,0,1,0-3.569-3.569l-25.016,25.015a2.673,2.673,0,0,1-3.594.044,2.6,2.6,0,0,1-.266-3.155l9.662-9.661a3.088,3.088,0,0,0,.5-.649l.794-.792a2.543,2.543,0,1,0-3.569-3.569l-5,5a2.593,2.593,0,0,1-3.154-.266,2.672,2.672,0,0,1,.044-3.594l18.989-18.988a2.543,2.543,0,1,0-3.569-3.571l-5.734,5.733-4.062,4.062c-.072.061-.14.123-.209.191l-6.394,6.395a2.674,2.674,0,0,1-3.594.043,2.712,2.712,0,0,1,.234-3.8l10.455-10.456a2.544,2.544,0,1,0-3.571-3.57l-5.6,5.6a3.257,3.257,0,0,0-.447.372l-8.8,8.8a2.716,2.716,0,0,1-3.8.236,2.677,2.677,0,0,1,.046-3.6l13.254-13.256a2.543,2.543,0,1,0-3.569-3.569l-9.8,9.8c-.07.06-.141.123-.208.189l-.66.66a2.674,2.674,0,0,1-3.595.044,2.6,2.6,0,0,1-.266-3.153l18.513-18.512a2.543,2.543,0,1,0-3.57-3.57l-1.176,1.177a3.122,3.122,0,0,0-.647.5l-7.62,7.621a2.6,2.6,0,0,1-3.155-.264,2.712,2.712,0,0,1,.234-3.8l3.062-3.063a2.544,2.544,0,1,0-3.571-3.57l-19.28,19.282a2.675,2.675,0,0,1-3.595.043,2.712,2.712,0,0,1,.233-3.8l10.456-10.456,5.733-5.733c.054-.054.1-.109.149-.166l4.494-4.492a2.544,2.544,0,1,0-3.571-3.569L1167.065,372.3a2.543,2.543,0,1,1-3.571-3.569l8.584-8.584a54.279,54.279,0,0,0-22.905,13.666,54.61,54.61,0,0,0-7.9,10q-1.245,2.023-2.3,4.125a2.276,2.276,0,0,0,.611,1.127,2.711,2.711,0,0,0,3.8-.234l3.063-3.063a2.543,2.543,0,1,1,3.568,3.571l-8.8,8.8c-.055.055-.106.115-.158.172l-4.484,4.486a2.542,2.542,0,1,0,3.569,3.567l3.063-3.061a2.713,2.713,0,0,1,3.8-.234,2.674,2.674,0,0,1-.044,3.594l-.369.368c-.065.067-.128.137-.189.208l-8.429,8.428a2.543,2.543,0,1,0,3.571,3.569l25.016-25.014a2.676,2.676,0,0,1,3.595-.045,2.6,2.6,0,0,1,.266,3.154l-12.78,12.779a2.543,2.543,0,1,0,3.571,3.569l1.176-1.176a3.133,3.133,0,0,0,.647-.5l1.887-1.888a2.6,2.6,0,0,1,3.155.265,2.675,2.675,0,0,1-.044,3.6l-18.99,18.989a2.544,2.544,0,1,0,3.57,3.571l5.733-5.733,4.063-4.063c.071-.06.141-.123.208-.19l6.393-6.393a2.675,2.675,0,0,1,3.6-.046,2.715,2.715,0,0,1-.233,3.8l-10.456,10.457a2.542,2.542,0,1,0,3.569,3.567l5.6-5.6a3.241,3.241,0,0,0,.446-.371l8.8-8.8a2.713,2.713,0,0,1,3.8-.233,2.675,2.675,0,0,1-.043,3.6L1170.85,439.79a2.543,2.543,0,1,0,3.569,3.57l9.8-9.8c.07-.061.14-.123.208-.189l.66-.66a2.672,2.672,0,0,1,3.594-.045,2.6,2.6,0,0,1,.266,3.154l-15.4,15.4a3.284,3.284,0,0,0-.5.648l-.794.793a2.543,2.543,0,1,0,3.57,3.569l10.737-10.735a2.59,2.59,0,0,1,3.153.265,2.711,2.711,0,0,1-.233,3.8l-3.063,3.063a2.543,2.543,0,1,0,3.57,3.57l19.281-19.28a2.5,2.5,0,0,1,3.655,3.413l-14.751,14.753a2.961,2.961,0,0,0-.293.344l-1.438,1.437a2.543,2.543,0,1,0,3.569,3.569l10.87-10.869a2.652,2.652,0,0,1,3.462.059,2.716,2.716,0,0,1-.233,3.8l-3.063,3.063a2.713,2.713,0,0,0-.233,3.8,2.265,2.265,0,0,0,1.128.61q2.1-1.05,4.125-2.294a54.65,54.65,0,0,0,17.9-17.9Z"/><circle class="c" cx="2.372" cy="2.372" r="2.372" transform="translate(1180.328 407.683)"/><circle class="c" cx="2.373" cy="2.373" r="2.373" transform="translate(1219.167 425.952)"/><circle class="e" cx="2.373" cy="2.373" r="2.373" transform="translate(1165.227 444.661)"/><path class="d" d="M1153.15,400.364a2.464,2.464,0,0,1-3.486,0h0a2.465,2.465,0,0,1,0-3.485l4.2-4.2a2.462,2.462,0,0,1,3.486,0h0a2.461,2.461,0,0,1,0,3.485Z"/><path class="c" d="M1195.36,429.6a2.462,2.462,0,0,1-3.484,0h0a2.461,2.461,0,0,1,0-3.486l4.2-4.2a2.464,2.464,0,0,1,3.487,0h0a2.461,2.461,0,0,1,0,3.484Z"/><path class="a" d="M1293.16,382.524c1.676,6.058-45.361,24.357-105.06,40.873s-109.452,24.992-111.126,18.932"/><path class="b" d="M1290.57,382.339c1.316,4.759-45.049,21.74-103.562,37.926s-107.015,25.451-108.332,20.691"/></g></svg>