<svg xmlns="http://www.w3.org/2000/svg" width="59.851" height="59.854" viewBox="0 0 59.851 59.854"><defs><style>.a{fill:#f6cdb3;}.b{fill:#f5c09a;}.c{fill:#f1a87a;}</style></defs><g transform="translate(-557.18 -434.452)"><path class="a" d="M582.786,489.665a1.489,1.489,0,0,0-1.658-1.281l-8.121.537a1.4,1.4,0,1,1-.185-2.771l3.49-.23c.041-.006.08-.011.121-.014l4.455-.3,8.122-.537a1.5,1.5,0,0,0,1.478-1.49,1.473,1.473,0,0,0-1.506-1.285l-14.98.992a1.4,1.4,0,1,1-.182-2.772l2.38-.158a1.494,1.494,0,0,0,1.476-1.489,1.431,1.431,0,0,0-1.213-1.254l-5.917.393a1.728,1.728,0,0,1-.451-.029l-.914.061A1.4,1.4,0,1,1,569,475.27l14.381-.953a1.429,1.429,0,0,0,1.033-1.4,1.472,1.472,0,0,0-1.505-1.286l-.513.035c-.052,0-.1,0-.154,0l-7.609.5a1.4,1.4,0,1,1-.185-2.772l10.3-.683a1.47,1.47,0,0,0,1.322-1.473,1.492,1.492,0,0,0-1.662-1.281l-6.831.452a1.908,1.908,0,0,1-.321-.007l-4.349.287a1.4,1.4,0,1,1-.183-2.771l8.121-.539a1.491,1.491,0,0,0,1.475-1.492,1.469,1.469,0,0,0-1.5-1.283l-4.967.328a1.363,1.363,0,0,1-.156,0l-3.154.209-4.455.3a1.4,1.4,0,1,1-.183-2.771l14.753-.979a1.472,1.472,0,0,0,1.321-1.473,1.427,1.427,0,0,0-1.211-1.254l-3.887.258a1.4,1.4,0,1,1-.182-2.773l.616-.04a1.675,1.675,0,0,1,.441-.087l7.508-.5a1.429,1.429,0,0,0,1.033-1.4,1.472,1.472,0,0,0-1.506-1.285l-19.433,1.289a1.4,1.4,0,1,1-.184-2.774l6.548-.434c.053-.009.1-.014.155-.018l.285-.018a1.472,1.472,0,0,0,1.321-1.474,1.457,1.457,0,0,0-1.409-1.28l-3.992.266a1.4,1.4,0,1,1-.183-2.772l1.119-.075a1.728,1.728,0,0,1,.244-.035l7-.464a1.457,1.457,0,0,0,1.229-1.455,1.491,1.491,0,0,0-1.658-1.282l-6.668.441a29.938,29.938,0,0,0,3.483,52.55l6.668-.443A1.5,1.5,0,0,0,582.786,489.665Z"/><path class="b" d="M593.445,437.571l-2.38.157a1.494,1.494,0,0,0-1.475,1.489A1.461,1.461,0,0,0,591,440.5l8.444-.56a1.4,1.4,0,1,1,.184,2.772l-1.117.074a1.973,1.973,0,0,1-.246.035l-11.461.76a1.377,1.377,0,0,0,.277,2.74l14.979-.994a1.4,1.4,0,1,1,.183,2.775l-2.38.156a1.492,1.492,0,0,0-1.476,1.49A1.43,1.43,0,0,0,599.6,451l8.343-.553a1.4,1.4,0,1,1,.182,2.771l-.615.041a1.753,1.753,0,0,1-.441.088l-11.963.793a1.427,1.427,0,0,0-1.032,1.4,1.468,1.468,0,0,0,1.5,1.285l.514-.033c.053,0,.1,0,.154,0l7.608-.505a1.4,1.4,0,1,1,.186,2.771l-10.3.684a1.473,1.473,0,0,0-1.322,1.473,1.492,1.492,0,0,0,1.659,1.283l6.835-.455a1.972,1.972,0,0,1,.318.009l4.353-.288a1.4,1.4,0,1,1,.184,2.773l-8.123.537a1.5,1.5,0,0,0-1.477,1.491,1.473,1.473,0,0,0,1.5,1.285l4.967-.328a1.374,1.374,0,0,1,.156-.005l3.154-.208,4.455-.3a1.4,1.4,0,1,1,.183,2.773l-14.751.978a1.472,1.472,0,0,0-1.323,1.473,1.43,1.43,0,0,0,1.211,1.254l1.465-.1a1.761,1.761,0,0,1,.45.028l.913-.061a1.4,1.4,0,1,1,.183,2.772l-9.927.658a1.428,1.428,0,0,0-1.034,1.4,1.471,1.471,0,0,0,1.505,1.285l19.435-1.288a1.4,1.4,0,1,1,.183,2.772l-6.548.434a1.333,1.333,0,0,1-.153.018l-.287.02a1.474,1.474,0,0,0-1.322,1.474,1.5,1.5,0,0,0,1.66,1.282l2.379-.158a1.4,1.4,0,1,1,.183,2.772l-3.482.231-.129.014-6.834.452a1.4,1.4,0,1,0,.183,2.772l2.379-.156a1.491,1.491,0,0,1,1.66,1.281,1.246,1.246,0,0,1-.156.689,29.939,29.939,0,0,0-3.758-56.673,1.234,1.234,0,0,1,.248.662A1.484,1.484,0,0,1,593.445,437.571Z"/><path class="c" d="M578.228,435.8a29.647,29.647,0,0,0-7.067,3.252l6.668-.441a1.492,1.492,0,0,1,1.658,1.282,1.457,1.457,0,0,1-1.229,1.455l-7,.464a1.89,1.89,0,0,0-.244.035l-1.119.075a1.4,1.4,0,1,0,.183,2.772l3.992-.266a1.378,1.378,0,0,1,.088,2.754l-.285.018c-.054,0-.1.009-.155.018l-6.548.434a1.4,1.4,0,1,0,.184,2.774l19.433-1.289a1.473,1.473,0,0,1,1.506,1.285,1.429,1.429,0,0,1-1.033,1.4l-7.508.5a1.667,1.667,0,0,0-.441.087l-.616.04a1.4,1.4,0,1,0,.182,2.773l3.887-.258a1.427,1.427,0,0,1,1.211,1.254,1.472,1.472,0,0,1-1.321,1.473l-14.753.979a1.4,1.4,0,1,0,.183,2.771l4.455-.3,3.154-.209a1.357,1.357,0,0,0,.156,0l4.967-.328a1.47,1.47,0,0,1,1.5,1.283,1.488,1.488,0,0,1-1.475,1.492l-8.121.539a1.4,1.4,0,1,0,.183,2.771l4.349-.287a1.905,1.905,0,0,0,.321.007l6.831-.452a1.493,1.493,0,0,1,1.662,1.281,1.47,1.47,0,0,1-1.322,1.473l-10.3.683a1.4,1.4,0,1,0,.185,2.772l7.609-.5c.051,0,.1,0,.154,0l.513-.035a1.473,1.473,0,0,1,1.505,1.286,1.428,1.428,0,0,1-1.033,1.4L569,475.265a1.4,1.4,0,1,0,.181,2.771l.914-.061a1.731,1.731,0,0,0,.451.029l5.917-.393a1.431,1.431,0,0,1,1.213,1.254,1.491,1.491,0,0,1-1.476,1.489l-2.38.158a1.4,1.4,0,1,0,.182,2.772l14.98-.992a1.474,1.474,0,0,1,1.506,1.285,1.5,1.5,0,0,1-1.478,1.49l-8.122.537-4.455.3c-.041,0-.08.008-.121.014l-3.49.23a1.4,1.4,0,1,0,.185,2.771l8.121-.537a1.4,1.4,0,1,1,.183,2.771l-6.668.443a30.025,30.025,0,0,0,21.344,1.369q1.248-.385,2.445-.875a1.247,1.247,0,0,0,.156-.689,1.491,1.491,0,0,0-1.66-1.281l-2.379.156a1.4,1.4,0,1,1-.183-2.772l6.834-.452.129-.014,3.482-.231a1.4,1.4,0,1,0-.183-2.772l-2.379.158a1.5,1.5,0,0,1-1.66-1.282,1.474,1.474,0,0,1,1.322-1.474l.287-.02a1.282,1.282,0,0,0,.153-.018l6.548-.434a1.4,1.4,0,1,0-.183-2.772l-19.435,1.288a1.472,1.472,0,0,1-1.505-1.285,1.428,1.428,0,0,1,1.034-1.4l9.927-.658a1.4,1.4,0,1,0-.183-2.772l-.913.061a1.765,1.765,0,0,0-.45-.028l-1.465.1a1.43,1.43,0,0,1-1.211-1.254,1.472,1.472,0,0,1,1.323-1.473l14.751-.978a1.4,1.4,0,1,0-.183-2.773l-4.455.3-3.154.208a1.367,1.367,0,0,0-.156.005l-4.967.328a1.474,1.474,0,0,1-1.5-1.285,1.493,1.493,0,0,1,1.477-1.491l8.123-.537a1.4,1.4,0,1,0-.184-2.773l-4.353.288a1.979,1.979,0,0,0-.318-.009l-6.835.455a1.492,1.492,0,0,1-1.659-1.283,1.473,1.473,0,0,1,1.322-1.473l10.3-.684a1.4,1.4,0,1,0-.186-2.771l-7.608.505c-.052,0-.1,0-.154,0l-.514.033a1.469,1.469,0,0,1-1.5-1.285,1.427,1.427,0,0,1,1.032-1.4l11.963-.793a1.742,1.742,0,0,0,.441-.088l.615-.041a1.4,1.4,0,1,0-.182-2.771L599.6,451a1.43,1.43,0,0,1-1.209-1.254,1.49,1.49,0,0,1,1.476-1.49l2.38-.156a1.4,1.4,0,1,0-.183-2.775l-14.979.994a1.473,1.473,0,0,1-1.506-1.286,1.456,1.456,0,0,1,1.229-1.454l11.461-.76a2.172,2.172,0,0,0,.246-.035l1.117-.074a1.4,1.4,0,1,0-.184-2.772L591,440.5a1.462,1.462,0,0,1-1.412-1.281,1.491,1.491,0,0,1,1.475-1.489l2.38-.157a1.5,1.5,0,0,0,1.478-1.49,1.234,1.234,0,0,0-.248-.662c-.832-.219-1.682-.4-2.539-.545a30.123,30.123,0,0,0-13.909.921Z"/></g></svg>