<svg xmlns="http://www.w3.org/2000/svg" width="82.451" height="82.455" viewBox="0 0 82.451 82.455"><defs><style>.a{fill:#6dbcb7;}.b{fill:#16859a;}.c{fill:#3ab0b4;}</style></defs><g transform="translate(-1525.358 -375.318)"><path class="a" d="M1561.31,381.614a2.056,2.056,0,0,0,2.724.96l10.391-4.212a1.928,1.928,0,1,1,1.437,3.547l-4.465,1.81c-.05.024-.1.049-.153.07l-5.695,2.31-10.391,4.213a2.055,2.055,0,0,0-1.286,2.586,2.028,2.028,0,0,0,2.523,1.031l19.159-7.769a1.929,1.929,0,1,1,1.437,3.548l-3.042,1.232a2.056,2.056,0,0,0-1.286,2.586,1.964,1.964,0,0,0,2.123,1.117l7.573-3.07a2.368,2.368,0,0,1,.6-.156l1.168-.475a1.928,1.928,0,1,1,1.438,3.546l-18.4,7.458a1.972,1.972,0,0,0-.748,2.281,2.03,2.03,0,0,0,2.526,1.031l.654-.266c.066-.027.135-.051.2-.072l9.732-3.945a1.928,1.928,0,1,1,1.44,3.546l-13.173,5.341a2.026,2.026,0,0,0-1.093,2.5,2.057,2.057,0,0,0,2.726.959l8.737-3.542a2.353,2.353,0,0,1,.423-.129l5.566-2.256a1.927,1.927,0,1,1,1.437,3.545l-10.389,4.213a2.056,2.056,0,0,0-1.285,2.587,2.024,2.024,0,0,0,2.521,1.031l6.354-2.577c.066-.026.134-.05.2-.07l4.037-1.637,5.7-2.31a1.929,1.929,0,1,1,1.439,3.548L1575.3,423.37a2.027,2.027,0,0,0-1.092,2.5,1.968,1.968,0,0,0,2.123,1.117l4.971-2.016a1.928,1.928,0,1,1,1.44,3.546l-.79.319a2.363,2.363,0,0,1-.539.306l-9.6,3.893a1.97,1.97,0,0,0-.745,2.281,2.026,2.026,0,0,0,2.522,1.031l24.857-10.078a1.928,1.928,0,1,1,1.437,3.547l-8.373,3.4c-.064.032-.129.062-.195.089l-.366.148a1.9,1.9,0,0,0,1.3,3.56l5.1-2.07a1.928,1.928,0,1,1,1.437,3.547l-1.43.579a2.224,2.224,0,0,1-.305.152l-8.959,3.632a2.008,2.008,0,0,0-.979,2.436,2.055,2.055,0,0,0,2.722.959l8.529-3.458a41.233,41.233,0,0,0-27.252-67.214l-8.527,3.459A2.067,2.067,0,0,0,1561.31,381.614Z"/><path class="b" d="M1569.88,454.341l3.042-1.234a2.053,2.053,0,0,0,1.287-2.584,2.009,2.009,0,0,0-2.4-1.066l-10.8,4.381a1.927,1.927,0,1,1-1.437-3.545l1.428-.581a2.366,2.366,0,0,1,.307-.151l14.657-5.943a1.9,1.9,0,0,0-1.543-3.465l-19.158,7.768a1.928,1.928,0,1,1-1.44-3.547l3.044-1.233a2.058,2.058,0,0,0,1.288-2.587,1.972,1.972,0,0,0-2.125-1.115l-10.668,4.325a1.928,1.928,0,1,1-1.438-3.546l.786-.32a2.424,2.424,0,0,1,.542-.3l15.3-6.2a1.973,1.973,0,0,0,.747-2.282,2.028,2.028,0,0,0-2.522-1.031l-.656.268c-.068.027-.133.049-.2.071l-9.731,3.944a1.928,1.928,0,1,1-1.438-3.546l13.171-5.34a2.024,2.024,0,0,0,1.092-2.5,2.056,2.056,0,0,0-2.724-.961l-8.74,3.544a2.373,2.373,0,0,1-.422.128l-5.564,2.258a1.928,1.928,0,1,1-1.439-3.547l10.389-4.213a2.056,2.056,0,0,0,1.288-2.586,2.028,2.028,0,0,0-2.524-1.031l-6.353,2.576c-.066.027-.133.051-.2.071l-4.037,1.636-5.7,2.311a1.929,1.929,0,1,1-1.44-3.547l18.87-7.65a2.027,2.027,0,0,0,1.091-2.5,1.966,1.966,0,0,0-2.124-1.117l-1.875.76a2.282,2.282,0,0,1-.6.156l-1.168.475a1.928,1.928,0,1,1-1.44-3.546l12.7-5.148a1.969,1.969,0,0,0,.748-2.281,2.029,2.029,0,0,0-2.524-1.03l-24.855,10.078a1.928,1.928,0,1,1-1.439-3.547l8.376-3.395c.062-.032.125-.063.193-.09l.365-.148a2.031,2.031,0,0,0,1.093-2.5,2.059,2.059,0,0,0-2.726-.959l-3.043,1.233a1.928,1.928,0,1,1-1.437-3.546l4.456-1.807c.053-.025.1-.051.16-.073l8.742-3.544a1.929,1.929,0,1,0-1.44-3.548l-3.042,1.234a2.059,2.059,0,0,1-2.726-.96,1.754,1.754,0,0,1-.093-.967A41.23,41.23,0,0,0,1569.2,457.69a1.731,1.731,0,0,1-.607-.76A2.066,2.066,0,0,1,1569.88,454.341Z"/><path class="c" d="M1590.55,450.091a40.918,40.918,0,0,0,7.836-7.308l-8.529,3.458a2.055,2.055,0,0,1-2.722-.959,2.01,2.01,0,0,1,.979-2.436l8.959-3.632a2.408,2.408,0,0,0,.305-.152l1.43-.579a1.928,1.928,0,1,0-1.437-3.547l-5.1,2.07a1.9,1.9,0,0,1-1.3-3.56l.366-.148c.066-.027.131-.057.195-.089l8.373-3.4a1.928,1.928,0,1,0-1.437-3.547L1573.6,436.344a2.027,2.027,0,0,1-2.522-1.031,1.969,1.969,0,0,1,.745-2.281l9.6-3.893a2.36,2.36,0,0,0,.539-.306l.79-.319a1.928,1.928,0,1,0-1.44-3.546l-4.971,2.016a1.968,1.968,0,0,1-2.123-1.117,2.027,2.027,0,0,1,1.092-2.5l18.869-7.649a1.929,1.929,0,1,0-1.439-3.548l-5.7,2.31-4.037,1.637c-.067.021-.135.044-.2.07l-6.354,2.577a2.024,2.024,0,0,1-2.521-1.031,2.057,2.057,0,0,1,1.285-2.587l10.389-4.213a1.927,1.927,0,1,0-1.437-3.545l-5.566,2.256a2.355,2.355,0,0,0-.423.129l-8.737,3.542a2.057,2.057,0,0,1-2.726-.959,2.026,2.026,0,0,1,1.093-2.5l13.173-5.341a1.928,1.928,0,1,0-1.44-3.546l-9.732,3.945c-.066.021-.135.045-.2.072l-.654.266a2.03,2.03,0,0,1-2.526-1.031,1.971,1.971,0,0,1,.748-2.281l18.4-7.458a1.928,1.928,0,1,0-1.438-3.546l-1.168.475a2.388,2.388,0,0,0-.6.156l-7.573,3.07a1.964,1.964,0,0,1-2.123-1.117,2.057,2.057,0,0,1,1.286-2.586l3.042-1.232a1.929,1.929,0,1,0-1.437-3.548L1556.4,393.93a2.028,2.028,0,0,1-2.523-1.031,2.056,2.056,0,0,1,1.286-2.586l10.391-4.213,5.695-2.31c.054-.021.1-.046.153-.07l4.465-1.81a1.928,1.928,0,1,0-1.437-3.547l-10.391,4.212a1.928,1.928,0,1,1-1.437-3.546l8.527-3.459a41.132,41.132,0,0,0-20.029,2.778,41.408,41.408,0,0,0-8.473,4.65q-1.464,1.044-2.82,2.2a1.746,1.746,0,0,0,.093.967,2.059,2.059,0,0,0,2.726.96l3.042-1.234a1.929,1.929,0,1,1,1.44,3.548l-8.742,3.544c-.056.022-.107.048-.16.073l-4.456,1.807a1.928,1.928,0,1,0,1.437,3.546l3.043-1.233a2.059,2.059,0,0,1,2.726.959,2.031,2.031,0,0,1-1.093,2.5l-.365.148a2.03,2.03,0,0,0-.193.09l-8.376,3.395a1.928,1.928,0,1,0,1.439,3.547l24.855-10.078a2.029,2.029,0,0,1,2.524,1.03,1.969,1.969,0,0,1-.748,2.281l-12.7,5.148a1.928,1.928,0,1,0,1.44,3.546l1.168-.475a2.3,2.3,0,0,0,.6-.156l1.875-.76a1.966,1.966,0,0,1,2.124,1.117,2.027,2.027,0,0,1-1.091,2.5l-18.87,7.65a1.929,1.929,0,1,0,1.44,3.547l5.7-2.311,4.037-1.636c.067-.021.134-.044.2-.071l6.353-2.576a2.029,2.029,0,0,1,2.524,1.031,2.057,2.057,0,0,1-1.288,2.586l-10.389,4.213a1.928,1.928,0,1,0,1.439,3.547l5.564-2.258a2.375,2.375,0,0,0,.422-.128l8.74-3.544a2.056,2.056,0,0,1,2.724.961,2.024,2.024,0,0,1-1.092,2.5l-13.171,5.34a1.928,1.928,0,1,0,1.438,3.546l9.731-3.944c.07-.022.135-.044.2-.071l.656-.268a2.028,2.028,0,0,1,2.522,1.031,1.972,1.972,0,0,1-.747,2.282l-15.3,6.2a2.424,2.424,0,0,0-.542.3l-.786.32a1.928,1.928,0,1,0,1.438,3.546l10.668-4.325a1.972,1.972,0,0,1,2.125,1.115,2.059,2.059,0,0,1-1.288,2.587l-3.044,1.233a1.928,1.928,0,1,0,1.44,3.547l19.158-7.768a1.9,1.9,0,0,1,1.543,3.465l-14.657,5.943a2.573,2.573,0,0,0-.307.151l-1.428.581a1.927,1.927,0,1,0,1.437,3.545l10.8-4.381a2.01,2.01,0,0,1,2.4,1.066,2.053,2.053,0,0,1-1.287,2.584l-3.042,1.234a2.057,2.057,0,0,0-1.287,2.587,1.748,1.748,0,0,0,.607.76q1.778-.113,3.559-.384a41.481,41.481,0,0,0,17.786-7.211Z"/><circle class="a" cx="1.798" cy="1.798" r="1.798" transform="translate(1562.002 411.744)"/><path class="a" d="M1586.19,439.442a1.8,1.8,0,1,1,.991-2.343A1.8,1.8,0,0,1,1586.19,439.442Z"/><circle class="c" cx="1.798" cy="1.798" r="1.798" transform="translate(1540.532 433.107)"/><path class="b" d="M1546.02,398.049a1.867,1.867,0,0,1-2.433-1.028h0a1.87,1.87,0,0,1,1.029-2.436l4.177-1.692a1.869,1.869,0,0,1,2.436,1.028h0a1.869,1.869,0,0,1-1.032,2.435Z"/><path class="a" d="M1566.86,430.931a1.869,1.869,0,0,1-2.435-1.028h0a1.873,1.873,0,0,1,1.031-2.435l4.179-1.694a1.871,1.871,0,0,1,2.435,1.029h0a1.869,1.869,0,0,1-1.031,2.435Z"/></g></svg>