<svg xmlns="http://www.w3.org/2000/svg" width="133.879" height="133.862" viewBox="0 0 133.879 133.862"><g transform="translate(-1341.406 410.896) rotate(-30)"><path d="M1382.93,450.07a2.545,2.545,0,0,0-2.829-2.184l-13.837.917a2.385,2.385,0,1,1-.313-4.723l5.947-.395a2.048,2.048,0,0,1,.207-.023l7.589-.5,13.839-.917a2.544,2.544,0,0,0,2.514-2.539,2.507,2.507,0,0,0-2.563-2.189l-25.521,1.69a2.385,2.385,0,1,1-.314-4.723l4.054-.27a2.544,2.544,0,0,0,2.517-2.537,2.439,2.439,0,0,0-2.064-2.137l-10.085.668a2.945,2.945,0,0,1-.766-.049l-1.556.1a2.385,2.385,0,1,1-.312-4.723l24.5-1.625a2.433,2.433,0,0,0,1.762-2.389,2.509,2.509,0,0,0-2.563-2.191l-.875.059a2.567,2.567,0,0,1-.262.006l-12.965.859a2.386,2.386,0,1,1-.314-4.725l17.545-1.162a2.506,2.506,0,0,0,2.252-2.51,2.545,2.545,0,0,0-2.828-2.186l-11.641.773a3.075,3.075,0,0,1-.545-.014l-7.413.49a2.384,2.384,0,1,1-.312-4.722l13.837-.918a2.541,2.541,0,0,0,2.514-2.541,2.505,2.505,0,0,0-2.563-2.188l-8.462.56a2.63,2.63,0,0,1-.265.006l-5.375.355-7.589.5a2.385,2.385,0,1,1-.314-4.724l25.136-1.667a2.507,2.507,0,0,0,2.251-2.508,2.436,2.436,0,0,0-2.063-2.137l-6.62.438a2.384,2.384,0,1,1-.312-4.722l1.05-.069a2.835,2.835,0,0,1,.752-.149l12.787-.848a2.437,2.437,0,0,0,1.765-2.391,2.508,2.508,0,0,0-2.565-2.188l-33.107,2.194a2.386,2.386,0,1,1-.313-4.726l11.154-.737a2.536,2.536,0,0,1,.264-.03l.487-.031a2.508,2.508,0,0,0,2.251-2.51,2.482,2.482,0,0,0-2.4-2.18l-6.8.451a2.385,2.385,0,1,1-.312-4.725l1.906-.127a3.11,3.11,0,0,1,.416-.059l11.933-.791a2.49,2.49,0,0,0,2.1-2.48,2.547,2.547,0,0,0-2.828-2.185l-11.359.753a51.006,51.006,0,0,0,5.935,89.527l11.36-.752A2.534,2.534,0,0,0,1382.93,450.07Z" fill="#b572a8"/><path d="M1401.09,361.318l-4.054.27a2.541,2.541,0,0,0-2.514,2.538,2.485,2.485,0,0,0,2.405,2.182l14.387-.954a2.385,2.385,0,1,1,.311,4.724l-1.9.126a3.539,3.539,0,0,1-.42.061l-19.525,1.293a2.346,2.346,0,0,0,.47,4.668l25.518-1.691a2.386,2.386,0,1,1,.314,4.726l-4.054.268a2.541,2.541,0,0,0-2.514,2.539,2.435,2.435,0,0,0,2.061,2.137l14.211-.942a2.384,2.384,0,1,1,.312,4.722l-1.05.07a2.935,2.935,0,0,1-.752.149l-20.377,1.351a2.437,2.437,0,0,0-1.763,2.391,2.509,2.509,0,0,0,2.563,2.189l.873-.059c.091-.006.177-.006.266,0l12.963-.859a2.385,2.385,0,1,1,.314,4.723l-17.544,1.162a2.51,2.51,0,0,0-2.253,2.51,2.543,2.543,0,0,0,2.827,2.186l11.643-.772a3.076,3.076,0,0,1,.544.013l7.413-.489a2.385,2.385,0,1,1,.314,4.723l-13.839.917a2.546,2.546,0,0,0-2.515,2.539,2.507,2.507,0,0,0,2.563,2.189l8.462-.56a2.643,2.643,0,0,1,.266-.006l5.375-.356,7.589-.5a2.385,2.385,0,1,1,.313,4.724l-25.133,1.666a2.507,2.507,0,0,0-2.253,2.509,2.438,2.438,0,0,0,2.063,2.137l2.5-.166a2.945,2.945,0,0,1,.766.049l1.556-.1a2.385,2.385,0,1,1,.313,4.723l-16.913,1.12a2.435,2.435,0,0,0-1.761,2.391,2.5,2.5,0,0,0,2.563,2.188l33.108-2.192a2.385,2.385,0,1,1,.313,4.724l-11.156.738c-.086.014-.174.024-.262.03l-.488.032a2.511,2.511,0,0,0-2.253,2.51,2.546,2.546,0,0,0,2.829,2.184l4.052-.268a2.385,2.385,0,1,1,.314,4.723l-5.935.395c-.072.009-.146.018-.22.022l-11.641.772a2.385,2.385,0,1,0,.312,4.723l4.052-.268a2.542,2.542,0,0,1,2.829,2.184,2.155,2.155,0,0,1-.265,1.175,51.006,51.006,0,0,0-6.4-96.553,2.125,2.125,0,0,1,.42,1.128A2.532,2.532,0,0,1,1401.09,361.318Z" fill="#724693"/><path d="M1375.16,358.293a50.593,50.593,0,0,0-12.04,5.542l11.359-.753a2.546,2.546,0,0,1,2.828,2.185,2.488,2.488,0,0,1-2.1,2.48l-11.933.791a2.96,2.96,0,0,0-.416.059l-1.906.127a2.385,2.385,0,1,0,.312,4.725l6.8-.451a2.482,2.482,0,0,1,2.4,2.18,2.508,2.508,0,0,1-2.251,2.51l-.487.031c-.09.006-.177.016-.264.03l-11.154.737a2.386,2.386,0,1,0,.313,4.726l33.107-2.194a2.509,2.509,0,0,1,2.565,2.188,2.439,2.439,0,0,1-1.765,2.391l-12.787.848a2.875,2.875,0,0,0-.752.149l-1.05.069a2.384,2.384,0,1,0,.312,4.722l6.62-.438a2.435,2.435,0,0,1,2.063,2.137,2.507,2.507,0,0,1-2.251,2.508l-25.136,1.667a2.385,2.385,0,1,0,.314,4.724l7.589-.5,5.375-.355a2.63,2.63,0,0,0,.265-.006l8.462-.56a2.505,2.505,0,0,1,2.563,2.188,2.541,2.541,0,0,1-2.514,2.541l-13.837.918a2.384,2.384,0,1,0,.312,4.722l7.413-.49a3.176,3.176,0,0,0,.545.014l11.641-.773a2.544,2.544,0,0,1,2.828,2.186,2.506,2.506,0,0,1-2.252,2.51l-17.545,1.162a2.386,2.386,0,1,0,.314,4.725l12.965-.859a2.549,2.549,0,0,0,.262-.006l.875-.059a2.51,2.51,0,0,1,2.563,2.191,2.435,2.435,0,0,1-1.762,2.389l-24.5,1.625a2.385,2.385,0,1,0,.312,4.723l1.556-.1a2.989,2.989,0,0,0,.766.049l10.085-.668a2.438,2.438,0,0,1,2.064,2.137,2.544,2.544,0,0,1-2.517,2.537l-4.054.27a2.385,2.385,0,1,0,.314,4.723l25.521-1.69a2.508,2.508,0,0,1,2.563,2.189,2.544,2.544,0,0,1-2.514,2.539l-13.839.917-7.589.5c-.07,0-.138.014-.207.023l-5.947.395a2.385,2.385,0,1,0,.313,4.723l13.837-.917a2.385,2.385,0,1,1,.315,4.724l-11.36.752a50.846,50.846,0,0,0,24.6,4.509,51.108,51.108,0,0,0,11.757-2.175q2.124-.657,4.168-1.492a2.162,2.162,0,0,0,.265-1.175,2.543,2.543,0,0,0-2.829-2.184l-4.052.268a2.385,2.385,0,1,1-.312-4.723l11.641-.772c.073-.005.147-.014.22-.022l5.935-.395a2.385,2.385,0,1,0-.314-4.723l-4.052.268a2.545,2.545,0,0,1-2.829-2.184,2.511,2.511,0,0,1,2.253-2.51l.488-.032c.088-.006.176-.017.262-.03l11.156-.738a2.385,2.385,0,1,0-.313-4.724l-33.108,2.192a2.5,2.5,0,0,1-2.563-2.188,2.437,2.437,0,0,1,1.761-2.391l16.913-1.12a2.385,2.385,0,1,0-.313-4.723l-1.556.1a2.989,2.989,0,0,0-.766-.049l-2.5.166a2.437,2.437,0,0,1-2.063-2.137,2.507,2.507,0,0,1,2.253-2.509l25.133-1.666a2.385,2.385,0,1,0-.313-4.724l-7.589.5-5.375.356a2.643,2.643,0,0,0-.266.006l-8.462.56a2.508,2.508,0,0,1-2.563-2.189,2.546,2.546,0,0,1,2.515-2.539l13.839-.917a2.385,2.385,0,1,0-.314-4.723l-7.413.489a3.175,3.175,0,0,0-.544-.013l-11.643.772a2.542,2.542,0,0,1-2.827-2.186,2.51,2.51,0,0,1,2.253-2.51l17.544-1.162a2.385,2.385,0,1,0-.314-4.723l-12.963.859c-.089,0-.175,0-.266,0l-.873.059a2.509,2.509,0,0,1-2.563-2.189,2.438,2.438,0,0,1,1.763-2.391l20.377-1.351a2.977,2.977,0,0,0,.752-.149l1.05-.07a2.384,2.384,0,1,0-.312-4.722l-14.211.942a2.436,2.436,0,0,1-2.061-2.137,2.541,2.541,0,0,1,2.514-2.539l4.054-.268a2.386,2.386,0,1,0-.314-4.726l-25.518,1.691a2.346,2.346,0,0,1-.47-4.668l19.525-1.293a3.337,3.337,0,0,0,.42-.061l1.9-.126a2.385,2.385,0,1,0-.311-4.724l-14.387.954a2.485,2.485,0,0,1-2.405-2.182,2.541,2.541,0,0,1,2.514-2.538l4.054-.27a2.544,2.544,0,0,0,2.516-2.538,2.124,2.124,0,0,0-.42-1.128q-2.13-.558-4.328-.929a51.254,51.254,0,0,0-23.7,1.571Z" fill="#8e62a0"/><circle cx="2.226" cy="2.226" r="2.226" transform="translate(1390.184 409.377)" fill="#b572a8"/><circle cx="2.225" cy="2.225" r="2.225" transform="translate(1374.065 372.487)" fill="#b572a8"/><path d="M1425.76,392.618a2.225,2.225,0,1,1-2.074,2.368A2.224,2.224,0,0,1,1425.76,392.618Z" fill="#8e62a0"/><path d="M1407.27,436.7a2.314,2.314,0,0,1,2.459,2.154h0a2.312,2.312,0,0,1-2.154,2.46l-5.564.369a2.311,2.311,0,0,1-2.459-2.154h0a2.311,2.311,0,0,1,2.152-2.461Z" fill="#724693"/><path d="M1395.55,389.987a2.309,2.309,0,0,1,2.459,2.152h0a2.31,2.31,0,0,1-2.153,2.461l-5.563.369a2.314,2.314,0,0,1-2.462-2.154h0a2.314,2.314,0,0,1,2.156-2.46Z" fill="#b572a8"/></g></svg>