<svg xmlns="http://www.w3.org/2000/svg" width="75.1" height="73.505" viewBox="0 0 75.1 73.505"><defs><style>.a{fill:#df242a;}.b{fill:#e45740;}</style></defs><g transform="translate(-851.676 -176.254) rotate(-17)"><path class="a" d="M783.126,490.427a1.536,1.536,0,0,0-1.709-1.321l-8.368.555a1.442,1.442,0,1,1-.19-2.856l3.6-.238c.042-.006.083-.011.124-.014l4.59-.3,8.371-.555a1.539,1.539,0,0,0,1.521-1.536,1.517,1.517,0,0,0-1.551-1.323l-15.436,1.021a1.442,1.442,0,1,1-.19-2.855l2.452-.164a1.538,1.538,0,0,0,1.521-1.534,1.471,1.471,0,0,0-1.25-1.292l-6.1.4a1.829,1.829,0,0,1-.464-.029l-.941.062a1.442,1.442,0,1,1-.188-2.856l14.816-.981a1.473,1.473,0,0,0,1.065-1.445,1.515,1.515,0,0,0-1.55-1.325l-.528.035a1.21,1.21,0,0,1-.159,0l-7.842.521a1.443,1.443,0,1,1-.19-2.857l10.612-.7a1.513,1.513,0,0,0,1.361-1.518A1.536,1.536,0,0,0,784.792,466l-7.039.467a1.933,1.933,0,0,1-.332-.008l-4.48.3a1.442,1.442,0,1,1-.19-2.855l8.369-.557a1.534,1.534,0,0,0,1.518-1.536,1.512,1.512,0,0,0-1.548-1.323l-5.118.338a1.433,1.433,0,0,1-.16,0l-3.251.215-4.591.306a1.442,1.442,0,1,1-.189-2.856l15.2-1.009a1.517,1.517,0,0,0,1.361-1.518,1.47,1.47,0,0,0-1.248-1.292l-4.006.266a1.442,1.442,0,1,1-.187-2.857l.635-.041a1.775,1.775,0,0,1,.455-.091l7.736-.513a1.471,1.471,0,0,0,1.064-1.445,1.516,1.516,0,0,0-1.551-1.324l-20.024,1.328a1.443,1.443,0,1,1-.19-2.858l6.747-.446a1.386,1.386,0,0,1,.161-.02l.293-.018a1.517,1.517,0,0,0,1.361-1.518,1.5,1.5,0,0,0-1.452-1.319l-4.114.272a1.441,1.441,0,1,1-.188-2.855l1.153-.078a1.577,1.577,0,0,1,.252-.035l7.216-.479a1.5,1.5,0,0,0,1.268-1.5,1.539,1.539,0,0,0-1.708-1.322l-6.871.455a30.85,30.85,0,0,0,3.59,54.151l6.87-.457A1.544,1.544,0,0,0,783.126,490.427Z"/><path class="a" d="M794.11,436.747l-2.451.162a1.54,1.54,0,0,0-1.521,1.535,1.505,1.505,0,0,0,1.455,1.32l8.7-.576a1.442,1.442,0,1,1,.189,2.855l-1.149.077a1.954,1.954,0,0,1-.253.036l-11.811.783a1.5,1.5,0,0,0-1.267,1.5,1.518,1.518,0,0,0,1.552,1.325l15.434-1.023a1.443,1.443,0,1,1,.19,2.858l-2.451.161a1.539,1.539,0,0,0-1.521,1.536,1.474,1.474,0,0,0,1.247,1.293l8.595-.57a1.442,1.442,0,1,1,.189,2.855l-.635.043a1.793,1.793,0,0,1-.454.09l-12.326.818a1.471,1.471,0,0,0-1.064,1.445,1.514,1.514,0,0,0,1.55,1.323l.527-.036c.055,0,.106,0,.16,0l7.84-.52a1.442,1.442,0,1,1,.192,2.855l-10.612.7a1.518,1.518,0,0,0-1.363,1.519,1.54,1.54,0,0,0,1.711,1.322l7.043-.469a1.766,1.766,0,0,1,.326.008l4.486-.3a1.442,1.442,0,1,1,.189,2.856l-8.37.555a1.538,1.538,0,0,0-1.521,1.536,1.514,1.514,0,0,0,1.549,1.323l5.119-.338a1.433,1.433,0,0,1,.16,0l3.251-.215,4.589-.3a1.443,1.443,0,1,1,.19,2.857l-15.2,1.008a1.515,1.515,0,0,0-1.363,1.518,1.471,1.471,0,0,0,1.248,1.291l1.509-.1a1.829,1.829,0,0,1,.464.029l.941-.063a1.443,1.443,0,1,1,.19,2.857l-10.229.678a1.475,1.475,0,0,0-1.066,1.445,1.517,1.517,0,0,0,1.551,1.324l20.025-1.326a1.442,1.442,0,1,1,.189,2.856l-6.748.446a1.351,1.351,0,0,1-.157.019l-.3.02a1.518,1.518,0,0,0-1.362,1.519,1.539,1.539,0,0,0,1.711,1.32l2.452-.162a1.442,1.442,0,1,1,.188,2.856l-3.588.239c-.044,0-.088.011-.133.014l-7.041.466a1.443,1.443,0,1,0,.19,2.857l2.449-.161a1.535,1.535,0,0,1,1.711,1.32,1.291,1.291,0,0,1-.16.71,30.85,30.85,0,0,0-3.871-58.4,1.3,1.3,0,0,1,.256.682A1.544,1.544,0,0,1,794.11,436.747Z"/><path class="b" d="M778.429,434.918a30.63,30.63,0,0,0-7.281,3.351l6.871-.455a1.539,1.539,0,0,1,1.708,1.322,1.5,1.5,0,0,1-1.268,1.5l-7.216.479a1.7,1.7,0,0,0-.252.035l-1.153.078a1.441,1.441,0,1,0,.188,2.855l4.114-.272a1.5,1.5,0,0,1,1.452,1.319,1.518,1.518,0,0,1-1.361,1.518l-.293.018a1.393,1.393,0,0,0-.161.02l-6.747.446a1.443,1.443,0,1,0,.19,2.858l20.024-1.328a1.518,1.518,0,0,1,1.551,1.324,1.47,1.47,0,0,1-1.064,1.445l-7.736.513a1.766,1.766,0,0,0-.455.091l-.635.041a1.442,1.442,0,1,0,.187,2.857l4.006-.266a1.47,1.47,0,0,1,1.248,1.292,1.518,1.518,0,0,1-1.361,1.518l-15.2,1.009a1.442,1.442,0,1,0,.189,2.856l4.591-.306,3.251-.215a1.433,1.433,0,0,0,.16,0l5.118-.338a1.513,1.513,0,0,1,1.548,1.323,1.533,1.533,0,0,1-1.518,1.536l-8.369.557a1.442,1.442,0,1,0,.19,2.855l4.48-.3a1.93,1.93,0,0,0,.332.008l7.039-.467a1.536,1.536,0,0,1,1.711,1.321,1.514,1.514,0,0,1-1.361,1.518l-10.612.7a1.443,1.443,0,1,0,.19,2.857l7.842-.521a1.2,1.2,0,0,0,.159,0l.528-.035a1.516,1.516,0,0,1,1.55,1.325,1.472,1.472,0,0,1-1.065,1.445l-14.816.981a1.442,1.442,0,1,0,.188,2.856l.941-.062a1.826,1.826,0,0,0,.464.029l6.1-.4a1.471,1.471,0,0,1,1.25,1.292,1.536,1.536,0,0,1-1.521,1.534l-2.452.164a1.442,1.442,0,1,0,.19,2.855l15.436-1.021a1.519,1.519,0,0,1,1.551,1.323,1.539,1.539,0,0,1-1.521,1.536l-8.371.555-4.59.3c-.041,0-.082.008-.124.014l-3.6.238a1.442,1.442,0,1,0,.19,2.856l8.368-.555a1.442,1.442,0,1,1,.19,2.856l-6.87.457a30.927,30.927,0,0,0,21.991,1.411q1.287-.4,2.521-.9a1.291,1.291,0,0,0,.16-.71,1.535,1.535,0,0,0-1.711-1.32l-2.449.161a1.443,1.443,0,1,1-.19-2.857l7.041-.466c.045,0,.089-.01.133-.014l3.588-.239a1.442,1.442,0,1,0-.188-2.856l-2.452.162a1.539,1.539,0,0,1-1.711-1.32,1.52,1.52,0,0,1,1.362-1.519l.3-.02a1.343,1.343,0,0,0,.157-.019l6.748-.446a1.442,1.442,0,1,0-.189-2.856l-20.025,1.326a1.519,1.519,0,0,1-1.551-1.324,1.473,1.473,0,0,1,1.066-1.445l10.229-.678a1.443,1.443,0,1,0-.19-2.857l-.941.063a1.826,1.826,0,0,0-.464-.029l-1.509.1a1.471,1.471,0,0,1-1.248-1.291,1.516,1.516,0,0,1,1.363-1.518l15.2-1.008a1.443,1.443,0,1,0-.19-2.857l-4.589.3-3.251.215a1.433,1.433,0,0,0-.16,0l-5.119.338a1.516,1.516,0,0,1-1.549-1.323,1.537,1.537,0,0,1,1.521-1.536l8.37-.555a1.442,1.442,0,1,0-.189-2.856l-4.486.3a1.766,1.766,0,0,0-.326-.008l-7.043.469a1.54,1.54,0,0,1-1.711-1.322,1.52,1.52,0,0,1,1.363-1.519l10.612-.7a1.442,1.442,0,1,0-.192-2.855l-7.84.52c-.054,0-.1,0-.16,0l-.527.036a1.515,1.515,0,0,1-1.55-1.323,1.469,1.469,0,0,1,1.064-1.445l12.326-.818a1.784,1.784,0,0,0,.454-.09l.635-.043a1.442,1.442,0,1,0-.189-2.855l-8.595.57a1.474,1.474,0,0,1-1.247-1.293,1.539,1.539,0,0,1,1.521-1.536l2.451-.161a1.443,1.443,0,1,0-.19-2.858l-15.434,1.023A1.519,1.519,0,0,1,786,444.439a1.5,1.5,0,0,1,1.267-1.5l11.811-.783a2.137,2.137,0,0,0,.253-.036l1.149-.077a1.442,1.442,0,1,0-.189-2.855l-8.7.576a1.506,1.506,0,0,1-1.455-1.32,1.54,1.54,0,0,1,1.521-1.535l2.451-.162a1.54,1.54,0,0,0,1.523-1.535,1.292,1.292,0,0,0-.256-.682q-1.287-.339-2.617-.563a31.056,31.056,0,0,0-14.33.949Z"/></g></svg>