<svg xmlns="http://www.w3.org/2000/svg" width="2065.631" height="1023.802" viewBox="0 0 2065.631 1023.802"><g transform="translate(135.319 -71.106)" opacity="0.45"><g transform="translate(1414.681 74.106)"><circle cx="1.641" cy="1.641" r="1.641" transform="translate(0 73.754)" fill="#fff"/><circle cx="1.64" cy="1.64" r="1.64" transform="translate(85.291 36.578)" fill="#fff"/><circle cx="1.64" cy="1.64" r="1.64" transform="translate(460.351 36.683)" fill="#fff"/><circle cx="1.64" cy="1.64" r="1.64" transform="translate(225.855 99.505)" fill="#fff"/><circle cx="1.641" cy="1.641" r="1.641" transform="translate(202.292 170.085)" fill="#fff"/><circle cx="3.28" cy="3.28" r="3.28" transform="translate(14.217)" fill="#fff"/><circle cx="3.281" cy="3.281" r="3.281" transform="translate(110.441 88.57)" fill="#fff"/><circle cx="3.28" cy="3.28" r="3.28" transform="translate(310.546 59.047)" fill="#fff"/><circle cx="3.28" cy="3.28" r="3.28" transform="translate(3.282 180.421)" fill="#fff"/><circle cx="3.28" cy="3.28" r="3.28" transform="translate(231.816 24.056)" fill="#fff"/><circle cx="3.28" cy="3.28" r="3.28" transform="translate(388.182 136.683)" fill="#fff"/></g><g transform="translate(881.681 85.106)"><circle cx="1.641" cy="1.641" r="1.641" transform="translate(0 73.754)" fill="#fff"/><circle cx="1.64" cy="1.64" r="1.64" transform="translate(85.291 36.578)" fill="#fff"/><circle cx="1.64" cy="1.64" r="1.64" transform="translate(460.351 36.683)" fill="#fff"/><circle cx="1.64" cy="1.64" r="1.64" transform="translate(225.855 99.505)" fill="#fff"/><circle cx="1.641" cy="1.641" r="1.641" transform="translate(202.292 170.085)" fill="#fff"/><circle cx="3.28" cy="3.28" r="3.28" transform="translate(14.217)" fill="#fff"/><circle cx="3.281" cy="3.281" r="3.281" transform="translate(110.441 88.57)" fill="#fff"/><circle cx="3.28" cy="3.28" r="3.28" transform="translate(310.546 59.047)" fill="#fff"/><circle cx="3.28" cy="3.28" r="3.28" transform="translate(3.282 180.421)" fill="#fff"/><circle cx="3.28" cy="3.28" r="3.28" transform="translate(231.816 24.056)" fill="#fff"/><circle cx="3.28" cy="3.28" r="3.28" transform="translate(388.182 136.683)" fill="#fff"/></g><g transform="translate(346.681 85.106)"><circle cx="1.641" cy="1.641" r="1.641" transform="translate(0 73.754)" fill="#fff"/><circle cx="1.64" cy="1.64" r="1.64" transform="translate(85.291 36.578)" fill="#fff"/><circle cx="1.64" cy="1.64" r="1.64" transform="translate(460.351 36.683)" fill="#fff"/><circle cx="1.64" cy="1.64" r="1.64" transform="translate(225.855 99.505)" fill="#fff"/><circle cx="1.641" cy="1.641" r="1.641" transform="translate(202.292 170.085)" fill="#fff"/><circle cx="3.28" cy="3.28" r="3.28" transform="translate(14.217)" fill="#fff"/><circle cx="3.281" cy="3.281" r="3.281" transform="translate(110.441 88.57)" fill="#fff"/><circle cx="3.28" cy="3.28" r="3.28" transform="translate(310.546 59.047)" fill="#fff"/><circle cx="3.28" cy="3.28" r="3.28" transform="translate(3.282 180.421)" fill="#fff"/><circle cx="3.28" cy="3.28" r="3.28" transform="translate(231.816 24.056)" fill="#fff"/><circle cx="3.28" cy="3.28" r="3.28" transform="translate(388.182 136.683)" fill="#fff"/></g><g transform="translate(-135.319 71.106)"><circle cx="1.641" cy="1.641" r="1.641" transform="translate(0 73.754)" fill="#fff"/><circle cx="1.64" cy="1.64" r="1.64" transform="translate(85.291 36.578)" fill="#fff"/><circle cx="1.64" cy="1.64" r="1.64" transform="translate(460.351 36.683)" fill="#fff"/><circle cx="1.64" cy="1.64" r="1.64" transform="translate(225.855 99.505)" fill="#fff"/><circle cx="1.641" cy="1.641" r="1.641" transform="translate(202.292 170.085)" fill="#fff"/><circle cx="3.28" cy="3.28" r="3.28" transform="translate(14.217)" fill="#fff"/><circle cx="3.281" cy="3.281" r="3.281" transform="translate(110.441 88.57)" fill="#fff"/><circle cx="3.28" cy="3.28" r="3.28" transform="translate(310.546 59.047)" fill="#fff"/><circle cx="3.28" cy="3.28" r="3.28" transform="translate(3.282 180.421)" fill="#fff"/><circle cx="3.28" cy="3.28" r="3.28" transform="translate(231.816 24.056)" fill="#fff"/><circle cx="3.28" cy="3.28" r="3.28" transform="translate(388.182 136.683)" fill="#fff"/></g><g transform="translate(1437.681 353.228)"><circle cx="1.641" cy="1.641" r="1.641" transform="translate(0 73.754)" fill="#fff"/><circle cx="1.64" cy="1.64" r="1.64" transform="translate(85.291 36.578)" fill="#fff"/><circle cx="1.64" cy="1.64" r="1.64" transform="translate(460.351 36.683)" fill="#fff"/><circle cx="1.64" cy="1.64" r="1.64" transform="translate(225.855 99.505)" fill="#fff"/><circle cx="1.641" cy="1.641" r="1.641" transform="translate(202.292 170.085)" fill="#fff"/><circle cx="3.28" cy="3.28" r="3.28" transform="translate(14.217)" fill="#fff"/><circle cx="3.281" cy="3.281" r="3.281" transform="translate(110.441 88.57)" fill="#fff"/><circle cx="3.28" cy="3.28" r="3.28" transform="translate(310.546 59.047)" fill="#fff"/><circle cx="3.28" cy="3.28" r="3.28" transform="translate(3.282 180.421)" fill="#fff"/><circle cx="3.28" cy="3.28" r="3.28" transform="translate(231.816 24.056)" fill="#fff"/><circle cx="3.28" cy="3.28" r="3.28" transform="translate(388.182 136.683)" fill="#fff"/></g><g transform="translate(904.681 364.895)"><circle cx="1.641" cy="1.641" r="1.641" transform="translate(0 73.754)" fill="#fff"/><circle cx="1.64" cy="1.64" r="1.64" transform="translate(85.291 36.578)" fill="#fff"/><circle cx="1.64" cy="1.64" r="1.64" transform="translate(460.351 36.683)" fill="#fff"/><circle cx="1.64" cy="1.64" r="1.64" transform="translate(225.855 99.505)" fill="#fff"/><circle cx="1.641" cy="1.641" r="1.641" transform="translate(202.292 170.085)" fill="#fff"/><circle cx="3.28" cy="3.28" r="3.28" transform="translate(14.217)" fill="#fff"/><circle cx="3.281" cy="3.281" r="3.281" transform="translate(110.441 88.57)" fill="#fff"/><circle cx="3.28" cy="3.28" r="3.28" transform="translate(310.546 59.047)" fill="#fff"/><circle cx="3.28" cy="3.28" r="3.28" transform="translate(3.282 180.421)" fill="#fff"/><circle cx="3.28" cy="3.28" r="3.28" transform="translate(231.816 24.056)" fill="#fff"/><circle cx="3.28" cy="3.28" r="3.28" transform="translate(388.182 136.683)" fill="#fff"/></g><g transform="translate(369.681 364.895)"><circle cx="1.641" cy="1.641" r="1.641" transform="translate(0 73.754)" fill="#fff"/><circle cx="1.64" cy="1.64" r="1.64" transform="translate(85.291 36.578)" fill="#fff"/><circle cx="1.64" cy="1.64" r="1.64" transform="translate(460.351 36.683)" fill="#fff"/><circle cx="1.64" cy="1.64" r="1.64" transform="translate(225.855 99.505)" fill="#fff"/><circle cx="1.641" cy="1.641" r="1.641" transform="translate(202.292 170.085)" fill="#fff"/><circle cx="3.28" cy="3.28" r="3.28" transform="translate(14.217)" fill="#fff"/><circle cx="3.281" cy="3.281" r="3.281" transform="translate(110.441 88.57)" fill="#fff"/><circle cx="3.28" cy="3.28" r="3.28" transform="translate(310.546 59.047)" fill="#fff"/><circle cx="3.28" cy="3.28" r="3.28" transform="translate(3.282 180.421)" fill="#fff"/><circle cx="3.28" cy="3.28" r="3.28" transform="translate(231.816 24.056)" fill="#fff"/><circle cx="3.28" cy="3.28" r="3.28" transform="translate(388.182 136.683)" fill="#fff"/></g><g transform="translate(-112.319 350.046)"><circle cx="1.641" cy="1.641" r="1.641" transform="translate(0 73.754)" fill="#fff"/><circle cx="1.64" cy="1.64" r="1.64" transform="translate(85.291 36.578)" fill="#fff"/><circle cx="1.64" cy="1.64" r="1.64" transform="translate(460.351 36.683)" fill="#fff"/><circle cx="1.64" cy="1.64" r="1.64" transform="translate(225.855 99.505)" fill="#fff"/><circle cx="1.641" cy="1.641" r="1.641" transform="translate(202.292 170.085)" fill="#fff"/><circle cx="3.28" cy="3.28" r="3.28" transform="translate(14.217)" fill="#fff"/><circle cx="3.281" cy="3.281" r="3.281" transform="translate(110.441 88.57)" fill="#fff"/><circle cx="3.28" cy="3.28" r="3.28" transform="translate(310.546 59.047)" fill="#fff"/><circle cx="3.28" cy="3.28" r="3.28" transform="translate(3.282 180.421)" fill="#fff"/><circle cx="3.28" cy="3.28" r="3.28" transform="translate(231.816 24.056)" fill="#fff"/><circle cx="3.28" cy="3.28" r="3.28" transform="translate(388.182 136.683)" fill="#fff"/></g><g transform="translate(1456.681 617.32)"><circle cx="1.641" cy="1.641" r="1.641" transform="translate(0 73.754)" fill="#fff"/><circle cx="1.64" cy="1.64" r="1.64" transform="translate(85.291 36.578)" fill="#fff"/><circle cx="1.64" cy="1.64" r="1.64" transform="translate(460.351 36.683)" fill="#fff"/><circle cx="1.64" cy="1.64" r="1.64" transform="translate(225.855 99.505)" fill="#fff"/><circle cx="1.641" cy="1.641" r="1.641" transform="translate(202.292 170.085)" fill="#fff"/><circle cx="3.28" cy="3.28" r="3.28" transform="translate(14.217)" fill="#fff"/><circle cx="3.281" cy="3.281" r="3.281" transform="translate(110.441 88.57)" fill="#fff"/><circle cx="3.28" cy="3.28" r="3.28" transform="translate(310.546 59.047)" fill="#fff"/><circle cx="3.28" cy="3.28" r="3.28" transform="translate(3.282 180.421)" fill="#fff"/><circle cx="3.28" cy="3.28" r="3.28" transform="translate(231.816 24.056)" fill="#fff"/><circle cx="3.28" cy="3.28" r="3.28" transform="translate(388.182 136.683)" fill="#fff"/></g><g transform="translate(923.681 628.987)"><circle cx="1.641" cy="1.641" r="1.641" transform="translate(0 73.754)" fill="#fff"/><circle cx="1.64" cy="1.64" r="1.64" transform="translate(85.291 36.578)" fill="#fff"/><circle cx="1.64" cy="1.64" r="1.64" transform="translate(460.351 36.683)" fill="#fff"/><circle cx="1.64" cy="1.64" r="1.64" transform="translate(225.855 99.505)" fill="#fff"/><circle cx="1.641" cy="1.641" r="1.641" transform="translate(202.292 170.085)" fill="#fff"/><circle cx="3.28" cy="3.28" r="3.28" transform="translate(14.217)" fill="#fff"/><circle cx="3.281" cy="3.281" r="3.281" transform="translate(110.441 88.57)" fill="#fff"/><circle cx="3.28" cy="3.28" r="3.28" transform="translate(310.546 59.047)" fill="#fff"/><circle cx="3.28" cy="3.28" r="3.28" transform="translate(3.282 180.421)" fill="#fff"/><circle cx="3.28" cy="3.28" r="3.28" transform="translate(231.816 24.056)" fill="#fff"/><circle cx="3.28" cy="3.28" r="3.28" transform="translate(388.182 136.683)" fill="#fff"/></g><g transform="translate(388.681 628.987)"><circle cx="1.641" cy="1.641" r="1.641" transform="translate(0 73.754)" fill="#fff"/><circle cx="1.64" cy="1.64" r="1.64" transform="translate(85.291 36.578)" fill="#fff"/><circle cx="1.64" cy="1.64" r="1.64" transform="translate(460.351 36.683)" fill="#fff"/><circle cx="1.64" cy="1.64" r="1.64" transform="translate(225.855 99.505)" fill="#fff"/><circle cx="1.641" cy="1.641" r="1.641" transform="translate(202.292 170.085)" fill="#fff"/><circle cx="3.28" cy="3.28" r="3.28" transform="translate(14.217)" fill="#fff"/><circle cx="3.281" cy="3.281" r="3.281" transform="translate(110.441 88.57)" fill="#fff"/><circle cx="3.28" cy="3.28" r="3.28" transform="translate(310.546 59.047)" fill="#fff"/><circle cx="3.28" cy="3.28" r="3.28" transform="translate(3.282 180.421)" fill="#fff"/><circle cx="3.28" cy="3.28" r="3.28" transform="translate(231.816 24.056)" fill="#fff"/><circle cx="3.28" cy="3.28" r="3.28" transform="translate(388.182 136.683)" fill="#fff"/></g><g transform="translate(-93.319 614.138)"><circle cx="1.641" cy="1.641" r="1.641" transform="translate(0 73.754)" fill="#fff"/><circle cx="1.64" cy="1.64" r="1.64" transform="translate(85.291 36.578)" fill="#fff"/><circle cx="1.64" cy="1.64" r="1.64" transform="translate(460.351 36.683)" fill="#fff"/><circle cx="1.64" cy="1.64" r="1.64" transform="translate(225.855 99.505)" fill="#fff"/><circle cx="1.641" cy="1.641" r="1.641" transform="translate(202.292 170.085)" fill="#fff"/><circle cx="3.28" cy="3.28" r="3.28" transform="translate(14.217)" fill="#fff"/><circle cx="3.281" cy="3.281" r="3.281" transform="translate(110.441 88.57)" fill="#fff"/><circle cx="3.28" cy="3.28" r="3.28" transform="translate(310.546 59.047)" fill="#fff"/><circle cx="3.28" cy="3.28" r="3.28" transform="translate(3.282 180.421)" fill="#fff"/><circle cx="3.28" cy="3.28" r="3.28" transform="translate(231.816 24.056)" fill="#fff"/><circle cx="3.28" cy="3.28" r="3.28" transform="translate(388.182 136.683)" fill="#fff"/></g><g transform="translate(1466.681 896.927)"><circle cx="1.641" cy="1.641" r="1.641" transform="translate(0 73.754)" fill="#fff"/><circle cx="1.64" cy="1.64" r="1.64" transform="translate(85.291 36.578)" fill="#fff"/><circle cx="1.64" cy="1.64" r="1.64" transform="translate(460.351 36.683)" fill="#fff"/><circle cx="1.64" cy="1.64" r="1.64" transform="translate(225.855 99.505)" fill="#fff"/><circle cx="1.641" cy="1.641" r="1.641" transform="translate(202.292 170.085)" fill="#fff"/><circle cx="3.28" cy="3.28" r="3.28" transform="translate(14.217)" fill="#fff"/><circle cx="3.281" cy="3.281" r="3.281" transform="translate(110.441 88.57)" fill="#fff"/><circle cx="3.28" cy="3.28" r="3.28" transform="translate(310.546 59.047)" fill="#fff"/><circle cx="3.28" cy="3.28" r="3.28" transform="translate(3.282 180.421)" fill="#fff"/><circle cx="3.28" cy="3.28" r="3.28" transform="translate(231.816 24.056)" fill="#fff"/><circle cx="3.28" cy="3.28" r="3.28" transform="translate(388.182 136.683)" fill="#fff"/></g><g transform="translate(933.681 907.927)"><circle cx="1.641" cy="1.641" r="1.641" transform="translate(0 73.754)" fill="#fff"/><circle cx="1.64" cy="1.64" r="1.64" transform="translate(85.291 36.578)" fill="#fff"/><circle cx="1.64" cy="1.64" r="1.64" transform="translate(460.351 36.683)" fill="#fff"/><circle cx="1.64" cy="1.64" r="1.64" transform="translate(225.855 99.505)" fill="#fff"/><circle cx="1.641" cy="1.641" r="1.641" transform="translate(202.292 170.085)" fill="#fff"/><circle cx="3.28" cy="3.28" r="3.28" transform="translate(14.217)" fill="#fff"/><circle cx="3.281" cy="3.281" r="3.281" transform="translate(110.441 88.57)" fill="#fff"/><circle cx="3.28" cy="3.28" r="3.28" transform="translate(310.546 59.047)" fill="#fff"/><circle cx="3.28" cy="3.28" r="3.28" transform="translate(3.282 180.421)" fill="#fff"/><circle cx="3.28" cy="3.28" r="3.28" transform="translate(231.816 24.056)" fill="#fff"/><circle cx="3.28" cy="3.28" r="3.28" transform="translate(388.182 136.683)" fill="#fff"/></g><g transform="translate(398.681 907.927)"><circle cx="1.641" cy="1.641" r="1.641" transform="translate(0 73.754)" fill="#fff"/><circle cx="1.64" cy="1.64" r="1.64" transform="translate(85.291 36.578)" fill="#fff"/><circle cx="1.64" cy="1.64" r="1.64" transform="translate(460.351 36.683)" fill="#fff"/><circle cx="1.64" cy="1.64" r="1.64" transform="translate(225.855 99.505)" fill="#fff"/><circle cx="1.641" cy="1.641" r="1.641" transform="translate(202.292 170.085)" fill="#fff"/><circle cx="3.28" cy="3.28" r="3.28" transform="translate(14.217)" fill="#fff"/><circle cx="3.281" cy="3.281" r="3.281" transform="translate(110.441 88.57)" fill="#fff"/><circle cx="3.28" cy="3.28" r="3.28" transform="translate(310.546 59.047)" fill="#fff"/><circle cx="3.28" cy="3.28" r="3.28" transform="translate(3.282 180.421)" fill="#fff"/><circle cx="3.28" cy="3.28" r="3.28" transform="translate(231.816 24.056)" fill="#fff"/><circle cx="3.28" cy="3.28" r="3.28" transform="translate(388.182 136.683)" fill="#fff"/></g><g transform="translate(-83.319 893.927)"><circle cx="1.641" cy="1.641" r="1.641" transform="translate(0 73.754)" fill="#fff"/><circle cx="1.64" cy="1.64" r="1.64" transform="translate(85.291 36.578)" fill="#fff"/><circle cx="1.64" cy="1.64" r="1.64" transform="translate(460.351 36.683)" fill="#fff"/><circle cx="1.64" cy="1.64" r="1.64" transform="translate(225.855 99.505)" fill="#fff"/><circle cx="1.641" cy="1.641" r="1.641" transform="translate(202.292 170.085)" fill="#fff"/><circle cx="3.28" cy="3.28" r="3.28" transform="translate(14.217)" fill="#fff"/><circle cx="3.281" cy="3.281" r="3.281" transform="translate(110.441 88.57)" fill="#fff"/><circle cx="3.28" cy="3.28" r="3.28" transform="translate(310.546 59.047)" fill="#fff"/><circle cx="3.28" cy="3.28" r="3.28" transform="translate(3.282 180.421)" fill="#fff"/><circle cx="3.28" cy="3.28" r="3.28" transform="translate(231.816 24.056)" fill="#fff"/><circle cx="3.28" cy="3.28" r="3.28" transform="translate(388.182 136.683)" fill="#fff"/></g></g></svg>