<svg xmlns="http://www.w3.org/2000/svg" width="274.71" height="271.678" viewBox="0 0 274.71 271.678"><defs><style>.a{fill:#f6cf84;}.b{fill:#ea7f4e;}.c{fill:#f3aa4f;}.d{fill:#ee944f;}</style></defs><g transform="translate(377.927 483.726) rotate(172)"><path class="a" d="M178.174,265.044c6.4,10.5,16.879,10.5,23.281,0s13.624-9.226,16.048,2.829,12.27,15.639,21.876,7.963,15.958-4.01,14.113,8.148,6.18,18.892,17.834,14.963,16.368,1.691,10.475,12.485-.655,19.868,11.64,20.162,14.8,7.185,5.574,15.313-7.41,18.445,4.043,22.926,11.453,11.816,0,16.3-13.272,14.8-4.043,22.926,6.721,15.019-5.574,15.312-17.533,9.368-11.64,20.163,1.178,16.413-10.475,12.483-19.679,2.806-17.834,14.963-4.505,15.826-14.113,8.149-19.451-4.093-21.876,7.963-9.647,13.33-16.048,2.829-16.878-10.5-23.281,0-13.623,9.227-16.048-2.829-12.27-15.638-21.876-7.963-15.959,4.01-14.112-8.149-6.18-18.892-17.834-14.963-16.369-1.688-10.476-12.483.654-19.868-11.641-20.163-14.8-7.185-5.573-15.312,7.409-18.445-4.043-22.926-11.453-11.815,0-16.3,13.272-14.8,4.043-22.928-6.721-15.019,5.573-15.313,17.532-9.367,11.641-20.161-1.178-16.414,10.476-12.485,19.679-2.805,17.834-14.963,4.5-15.826,14.112-8.148,19.451,4.093,21.876-7.963S171.772,254.544,178.174,265.044Z"/><g transform="translate(96.529 284.697)"><g transform="translate(0 0)"><path class="b" d="M189.139,479.632a4.654,4.654,0,0,0-4.9-4.331H158.869a4.364,4.364,0,1,1,0-8.662h10.9c.127-.009.254-.016.383-.016h39.287a4.655,4.655,0,0,0,4.9-4.332,4.586,4.586,0,0,0-4.413-4.307l-46.793,0a4.363,4.363,0,1,1,0-8.661h7.432a4.654,4.654,0,0,0,4.9-4.331,4.456,4.456,0,0,0-3.506-4.15H153.462a5.378,5.378,0,0,1-1.392-.182h-2.852a4.363,4.363,0,1,1,0-8.659h44.921a4.458,4.458,0,0,0,3.506-4.15,4.589,4.589,0,0,0-4.413-4.309h-1.6c-.164,0-.326-.009-.485-.022h-23.77a4.363,4.363,0,1,1,0-8.661h32.168a4.592,4.592,0,0,0,4.417-4.308,4.657,4.657,0,0,0-4.9-4.332H177.717a5.784,5.784,0,0,1-.993-.088H163.132a4.363,4.363,0,1,1,0-8.661h25.374a4.655,4.655,0,0,0,4.9-4.333,4.589,4.589,0,0,0-4.414-4.308H173.474c-.164,0-.325-.006-.485-.021h-23.77a4.363,4.363,0,1,1,0-8.661H195.3a4.589,4.589,0,0,0,4.414-4.308,4.458,4.458,0,0,0-3.507-4.15H184.07a4.362,4.362,0,1,1,0-8.659H186a5.359,5.359,0,0,1,1.391-.184h23.45a4.454,4.454,0,0,0,3.5-4.15,4.587,4.587,0,0,0-4.413-4.308H149.221a4.363,4.363,0,1,1,0-8.661h20.452c.16-.014.321-.023.484-.023h.893a4.291,4.291,0,0,0,.29-8.578H158.871a4.363,4.363,0,1,1,0-8.661h3.494a5.539,5.539,0,0,1,.768-.059h21.878a4.551,4.551,0,0,0,4.129-4.274,4.654,4.654,0,0,0-4.9-4.329H163.415a93.317,93.317,0,0,0,0,164.151h20.827A4.642,4.642,0,0,0,189.139,479.632Z" transform="translate(-114.501 -308.601)"/><path class="c" d="M291.275,315.765h-7.433a4.654,4.654,0,0,0-4.9,4.329,4.55,4.55,0,0,0,4.129,4.274h26.378a4.362,4.362,0,1,1,0,8.658h-3.489a5.355,5.355,0,0,1-.774.062h-35.8a4.291,4.291,0,0,0,.291,8.578h46.791a4.364,4.364,0,1,1,0,8.663h-7.433a4.654,4.654,0,0,0-4.9,4.329,4.454,4.454,0,0,0,3.506,4.15H333.7a4.363,4.363,0,1,1,0,8.661h-1.924a5.525,5.525,0,0,1-1.394.181h-37.36a4.458,4.458,0,0,0-3.508,4.15,4.59,4.59,0,0,0,4.414,4.308h1.6c.164,0,.324.009.485.023H319.79a4.363,4.363,0,1,1,0,8.66H287.621a4.59,4.59,0,0,0-4.414,4.309,4.656,4.656,0,0,0,4.9,4.333h21.344a5.609,5.609,0,0,1,.993.088h13.592a4.363,4.363,0,1,1,0,8.661H298.66a4.653,4.653,0,0,0-4.9,4.332,4.589,4.589,0,0,0,4.414,4.309h15.516c.163,0,.324.007.484.021h23.77a4.363,4.363,0,1,1,0,8.661H291.865a4.589,4.589,0,0,0-4.415,4.309,4.457,4.457,0,0,0,3.506,4.15h4.578a5.4,5.4,0,0,1,1.394.183h2.852a4.362,4.362,0,1,1,0,8.659H268.772a4.457,4.457,0,0,0-3.506,4.15,4.587,4.587,0,0,0,4.414,4.308h60.706a4.364,4.364,0,1,1,0,8.662H309.932c-.16.015-.32.023-.482.023h-.894a4.586,4.586,0,0,0-4.413,4.307,4.656,4.656,0,0,0,4.9,4.332h7.433a4.364,4.364,0,1,1,0,8.662H305.589c-.133.006-.266.017-.4.017H283.841a4.363,4.363,0,1,0,0,8.66h7.433a4.653,4.653,0,0,1,4.9,4.331,3.909,3.909,0,0,1-.627,2.11,93.316,93.316,0,0,0,0-177.032,3.913,3.913,0,0,1,.627,2.11C296.172,313.817,293.969,315.765,291.275,315.765Z" transform="translate(-172.748 -304.556)"/><path class="d" d="M204.833,304.1a92.664,92.664,0,0,0-22.646,8.661h20.827a4.654,4.654,0,0,1,4.9,4.329,4.551,4.551,0,0,1-4.129,4.274H181.9a5.539,5.539,0,0,0-.768.059h-3.494a4.363,4.363,0,1,0,0,8.661h12.468a4.291,4.291,0,0,1-.29,8.578h-.893c-.163,0-.323.009-.484.023H167.991a4.363,4.363,0,1,0,0,8.661H228.7a4.586,4.586,0,0,1,4.413,4.308,4.454,4.454,0,0,1-3.5,4.15h-23.45a5.333,5.333,0,0,0-1.391.184H202.84a4.362,4.362,0,1,0,0,8.659h12.139a4.458,4.458,0,0,1,3.507,4.15,4.589,4.589,0,0,1-4.414,4.308H167.989a4.363,4.363,0,1,0,0,8.661h23.769c.16.015.321.021.485.021h15.515a4.589,4.589,0,0,1,4.414,4.309,4.655,4.655,0,0,1-4.9,4.333H181.9a4.363,4.363,0,1,0,0,8.661h13.592a5.784,5.784,0,0,0,.993.088h21.345a4.656,4.656,0,0,1,4.9,4.332,4.591,4.591,0,0,1-4.417,4.309H186.146a4.363,4.363,0,1,0,0,8.661h23.77c.159.013.32.022.485.022H212a4.589,4.589,0,0,1,4.413,4.309,4.458,4.458,0,0,1-3.506,4.15H167.988a4.363,4.363,0,1,0,0,8.659h2.852a5.4,5.4,0,0,0,1.392.182h18.493a4.456,4.456,0,0,1,3.506,4.15,4.655,4.655,0,0,1-4.9,4.331H181.9a4.363,4.363,0,1,0,0,8.661l46.793,0a4.585,4.585,0,0,1,4.413,4.307,4.655,4.655,0,0,1-4.9,4.332H188.924c-.129,0-.256.008-.383.016h-10.9a4.364,4.364,0,1,0,0,8.662h25.374a4.363,4.363,0,1,1,0,8.661H182.187a93.554,93.554,0,0,0,66.095,8.661q3.961-.945,7.788-2.22a3.91,3.91,0,0,0,.627-2.11,4.654,4.654,0,0,0-4.9-4.331h-7.433a4.363,4.363,0,1,1,0-8.66h21.346c.136,0,.269-.011.4-.017H277a4.364,4.364,0,1,0,0-8.662h-7.433a4.655,4.655,0,0,1-4.9-4.332,4.587,4.587,0,0,1,4.413-4.307h.894c.161,0,.322-.009.482-.023h20.453a4.364,4.364,0,1,0,0-8.662H230.206a4.587,4.587,0,0,1-4.414-4.308,4.457,4.457,0,0,1,3.506-4.15h31.009a4.362,4.362,0,1,0,0-8.659h-2.852a5.428,5.428,0,0,0-1.394-.183h-4.578a4.457,4.457,0,0,1-3.506-4.15,4.589,4.589,0,0,1,4.415-4.309h46.082a4.363,4.363,0,1,0,0-8.661H274.7c-.16-.015-.321-.021-.484-.021H258.7a4.589,4.589,0,0,1-4.414-4.309,4.653,4.653,0,0,1,4.9-4.332H284.56a4.363,4.363,0,1,0,0-8.661H270.968a5.611,5.611,0,0,0-.993-.088H248.631a4.656,4.656,0,0,1-4.9-4.333,4.59,4.59,0,0,1,4.414-4.309h32.169a4.363,4.363,0,1,0,0-8.66h-23.77c-.161-.014-.321-.023-.485-.023h-1.6a4.59,4.59,0,0,1-4.414-4.308,4.458,4.458,0,0,1,3.508-4.15h37.36a5.492,5.492,0,0,0,1.394-.181h1.924a4.363,4.363,0,1,0,0-8.661H268.177a4.454,4.454,0,0,1-3.506-4.15,4.654,4.654,0,0,1,4.9-4.329H277a4.364,4.364,0,1,0,0-8.663H230.208a4.291,4.291,0,0,1-.291-8.578h35.8a5.351,5.351,0,0,0,.774-.062h3.489a4.362,4.362,0,1,0,0-8.658H243.6a4.55,4.55,0,0,1-4.129-4.274,4.654,4.654,0,0,1,4.9-4.329H251.8a4.653,4.653,0,0,0,4.9-4.33,3.911,3.911,0,0,0-.627-2.11q-3.822-1.273-7.788-2.22a93.851,93.851,0,0,0-43.45,0Z" transform="translate(-133.273 -301.548)"/></g><circle class="b" cx="4.071" cy="4.071" r="4.071" transform="translate(92.52 97.882)"/><circle class="b" cx="4.07" cy="4.07" r="4.07" transform="translate(67.562 28.587)"/><circle class="d" cx="4.071" cy="4.071" r="4.071" transform="translate(155.711 71.332)"/><path class="c" d="M302.081,545.272a4.23,4.23,0,0,1,4.231,4.23h0a4.23,4.23,0,0,1-4.231,4.231h-10.2a4.23,4.23,0,0,1-4.231-4.231h0a4.229,4.229,0,0,1,4.231-4.23Z" transform="translate(-181.395 -395.708)"/><path class="b" d="M276.419,404a4.231,4.231,0,0,1,4.23,4.23h0a4.23,4.23,0,0,1-4.23,4.23h-10.2a4.23,4.23,0,0,1-4.231-4.23h0a4.231,4.231,0,0,1,4.231-4.23Z" transform="translate(-171.481 -341.13)"/></g></g></svg>