<svg xmlns="http://www.w3.org/2000/svg" width="168.009" height="88.236" viewBox="0 0 168.009 88.236">
    <path d="M-101.075-14.495a1.5,1.5,0,0,1,1.333.78,4.032,4.032,0,0,1,.488,2.145,6.134,6.134,0,0,1-1.235,4.03,28.135,28.135,0,0,1-6.305,5.818,13.639,13.639,0,0,1-7.54,2.048,11.43,11.43,0,0,1-7.183-2.275q-2.957-2.275-5.622-7.8-2.145-4.42-3.38-6.533a10.27,10.27,0,0,0-2.437-3.023,5.872,5.872,0,0,0-2.958-1.1q-.26,1.365-1.495,8.58-.52,3.25-.65,3.965a11.508,11.508,0,0,1-2.6,6.078Q-142.61.325-146.575.325a12.31,12.31,0,0,1-7.7-2.568,16.366,16.366,0,0,1-5.167-7.15,28.085,28.085,0,0,1-1.82-10.433q0-10.92,3.8-18.85A27.94,27.94,0,0,1-146.8-50.8a29.73,29.73,0,0,1,15.827-4.192,25.681,25.681,0,0,1,10.465,1.885,13.61,13.61,0,0,1,6.272,5.2,13.935,13.935,0,0,1,2.048,7.475,15.868,15.868,0,0,1-1.723,7.118,17.713,17.713,0,0,1-5.168,6.143,23.16,23.16,0,0,1-8.385,3.965,9.659,9.659,0,0,1,4.81,2.73,22.714,22.714,0,0,1,3.38,5.525,20.907,20.907,0,0,0,3.607,5.72,5.621,5.621,0,0,0,4.128,1.82,6.557,6.557,0,0,0,3.965-1.4,31.459,31.459,0,0,0,4.745-4.777A2.282,2.282,0,0,1-101.075-14.495Zm-43.81-5.98a3.656,3.656,0,0,1-3.023-1.04,3.7,3.7,0,0,1-.812-2.34,3.162,3.162,0,0,1,1.008-2.47,3.344,3.344,0,0,1,2.307-.91h1.625q1.04-6.37,1.95-10.985.845-4.225,5.46-4.225,3.705,0,3.705,3.315a7.153,7.153,0,0,1-.065,1.105l-1.95,10.79a15.67,15.67,0,0,0,6.4-1.69,11.887,11.887,0,0,0,4.615-4.16,10.892,10.892,0,0,0,1.722-6.045,7.942,7.942,0,0,0-2.795-6.435q-2.8-2.34-8.19-2.34a19.773,19.773,0,0,0-11.148,3.153,20.519,20.519,0,0,0-7.443,9.36A38.265,38.265,0,0,0-154.18-20.28a26.521,26.521,0,0,0,.845,7.15,12.381,12.381,0,0,0,2.08,4.485,3.309,3.309,0,0,0,2.34,1.495,1.63,1.63,0,0,0,1.4-.845,7.56,7.56,0,0,0,.877-2.73Zm72.215.52a1.418,1.418,0,0,1,1.3.845,4.5,4.5,0,0,1,.455,2.145q0,3.12-1.885,3.7a29.593,29.593,0,0,1-8.58,1.56,16.224,16.224,0,0,1-4.875,8.743A11.993,11.993,0,0,1-94.51.325a11.535,11.535,0,0,1-6.662-1.885,11.972,11.972,0,0,1-4.193-5,16.029,16.029,0,0,1-1.43-6.76,19.85,19.85,0,0,1,1.885-8.808,14.808,14.808,0,0,1,5.2-6.045,13.1,13.1,0,0,1,7.345-2.177A10.123,10.123,0,0,1-84.4-26.943a14.616,14.616,0,0,1,3.542,8.417,39.4,39.4,0,0,0,7.28-1.3A3.82,3.82,0,0,1-72.67-19.955ZM-93.99-6.565a4.714,4.714,0,0,0,3.608-1.69,9.382,9.382,0,0,0,2.047-4.875A8.973,8.973,0,0,1-91.423-16.7a10.583,10.583,0,0,1-1.073-4.68,11.264,11.264,0,0,1,.195-2.08h-.325a5.1,5.1,0,0,0-4.323,2.5A12.337,12.337,0,0,0-98.67-13.91a9.068,9.068,0,0,0,1.4,5.46A4.035,4.035,0,0,0-93.99-6.565Zm50.635-13.39a1.418,1.418,0,0,1,1.3.845,4.5,4.5,0,0,1,.455,2.145q0,3.12-1.885,3.7a29.593,29.593,0,0,1-8.58,1.56A16.224,16.224,0,0,1-56.94-2.958,11.993,11.993,0,0,1-65.195.325,11.535,11.535,0,0,1-71.857-1.56a11.972,11.972,0,0,1-4.193-5,16.029,16.029,0,0,1-1.43-6.76A19.85,19.85,0,0,1-75.6-22.133a14.808,14.808,0,0,1,5.2-6.045,13.1,13.1,0,0,1,7.345-2.177,10.123,10.123,0,0,1,7.963,3.412,14.616,14.616,0,0,1,3.542,8.417,39.4,39.4,0,0,0,7.28-1.3A3.82,3.82,0,0,1-43.355-19.955Zm-21.32,13.39a4.714,4.714,0,0,0,3.608-1.69A9.382,9.382,0,0,0-59.02-13.13,8.973,8.973,0,0,1-62.107-16.7a10.583,10.583,0,0,1-1.073-4.68,11.264,11.264,0,0,1,.195-2.08h-.325a5.1,5.1,0,0,0-4.323,2.5,12.337,12.337,0,0,0-1.722,7.053,9.068,9.068,0,0,0,1.4,5.46A4.035,4.035,0,0,0-64.675-6.565Zm42.12-7.93a1.5,1.5,0,0,1,1.333.78,4.032,4.032,0,0,1,.487,2.145A5.977,5.977,0,0,1-21.97-7.54a28,28,0,0,1-6.077,5.655A13.019,13.019,0,0,1-35.49.325a9.025,9.025,0,0,1-8.482-5.2q-2.763-5.2-2.763-13.455A92.417,92.417,0,0,1-44.687-36.4a61.313,61.313,0,0,1,6.045-17.42q4-7.28,9.523-7.28a5.513,5.513,0,0,1,4.908,2.892q1.787,2.893,1.788,8.288,0,7.735-4.29,17.94A99.352,99.352,0,0,1-38.35-11.765a7.544,7.544,0,0,0,1.5,3.8,3.524,3.524,0,0,0,2.73,1.137,7.533,7.533,0,0,0,4.68-1.527,35.665,35.665,0,0,0,5.135-5.233A2.282,2.282,0,0,1-22.555-14.495Zm-7.995-40.17q-1.5,0-3.38,5.4a88.661,88.661,0,0,0-3.315,13.39A96.929,96.929,0,0,0-38.8-20.54,83.768,83.768,0,0,0-31.46-35.783a41.783,41.783,0,0,0,2.73-13.943Q-28.73-54.665-30.55-54.665ZM-19.175.325A7.3,7.3,0,0,1-25.188-2.6,12.024,12.024,0,0,1-27.5-10.27a21.131,21.131,0,0,1,2.405-9.847,20.529,20.529,0,0,1,6.4-7.475,14.439,14.439,0,0,1,8.483-2.828,2.531,2.531,0,0,1,1.917.553,4.669,4.669,0,0,1,.813,1.982,13.276,13.276,0,0,1,2.73-.26,3.418,3.418,0,0,1,2.405.78,2.858,2.858,0,0,1,.845,2.21,35.334,35.334,0,0,1-.65,5.2q-.715,3.965-1.1,7.572A75.85,75.85,0,0,0-3.64-4.29,5.089,5.089,0,0,1-4.648-.748,4.334,4.334,0,0,1-7.93.325,4.468,4.468,0,0,1-11.213-.748a4.774,4.774,0,0,1-1.073-3.478l.065-1.04Q-14.235.325-19.175.325ZM-16.64-6.24q1.82,0,3.315-2.535t2.665-9.035l1.235-6.565a7.676,7.676,0,0,0-4.94,2.048,13.973,13.973,0,0,0-3.64,5.233A17.612,17.612,0,0,0-19.37-10.2a4.922,4.922,0,0,0,.747,2.957A2.349,2.349,0,0,0-16.64-6.24Z"
          transform="matrix(0.985, -0.174, 0.174, 0.985, 169.425, 59.912)" fill="#EE9450"/>
</svg>